<svg xmlns="http://www.w3.org/2000/svg" xmlns:xlink="http://www.w3.org/1999/xlink" width="500" zoomAndPan="magnify" viewBox="0 0 375 374.999991" height="500" preserveAspectRatio="xMidYMid meet" version="1.0"><defs><g/><clipPath id="2f14b7c67b"><path d="M 271 82.539062 L 286 82.539062 L 286 100 L 271 100 Z M 271 82.539062 " clip-rule="nonzero"/></clipPath><clipPath id="60e52c2a3c"><path d="M 201.625 275.804688 L 221.964844 275.804688 L 221.964844 292.535156 L 201.625 292.535156 Z M 201.625 275.804688 " clip-rule="nonzero"/></clipPath><clipPath id="2dc7a298a9"><path d="M 303.078125 162.507812 L 318.535156 162.507812 L 318.535156 175.585938 L 303.078125 175.585938 Z M 303.078125 162.507812 " clip-rule="nonzero"/></clipPath><clipPath id="f1e8c94e77"><path d="M 89 82.539062 L 104 82.539062 L 104 100 L 89 100 Z M 89 82.539062 " clip-rule="nonzero"/></clipPath><clipPath id="730e92261e"><path d="M 152.632812 275.804688 L 172.96875 275.804688 L 172.96875 292.535156 L 152.632812 292.535156 Z M 152.632812 275.804688 " clip-rule="nonzero"/></clipPath><clipPath id="b7170f595a"><path d="M 56.09375 162 L 72 162 L 72 176 L 56.09375 176 Z M 56.09375 162 " clip-rule="nonzero"/></clipPath></defs><g clip-path="url(#2f14b7c67b)"><path fill="#000000" d="M 271.222656 82.742188 C 271.222656 82.742188 271.320312 83.289062 271.511719 84.167969 C 271.703125 85.046875 272.015625 86.234375 272.378906 87.585938 C 272.5625 88.257812 272.777344 88.957031 273.015625 89.660156 C 273.246094 90.375 273.496094 91.097656 273.785156 91.796875 C 273.929688 92.148438 274.082031 92.492188 274.242188 92.832031 C 274.394531 93.175781 274.554688 93.511719 274.726562 93.839844 C 275.066406 94.492188 275.453125 95.09375 275.875 95.644531 C 276.285156 96.199219 276.722656 96.664062 277.179688 97.058594 C 277.632812 97.445312 278.105469 97.761719 278.566406 98.03125 C 279.488281 98.558594 280.429688 98.847656 281.277344 99.003906 C 282.117188 99.160156 282.855469 99.1875 283.386719 99.167969 C 283.921875 99.152344 284.242188 99.089844 284.242188 99.089844 C 284.242188 99.089844 284.425781 98.816406 284.652344 98.328125 C 284.871094 97.839844 285.140625 97.128906 285.285156 96.269531 C 285.425781 95.410156 285.457031 94.390625 285.230469 93.273438 C 285.125 92.710938 284.929688 92.140625 284.660156 91.554688 C 284.390625 90.964844 284.039062 90.363281 283.589844 89.757812 C 283.132812 89.160156 282.585938 88.597656 282 88.0625 C 281.707031 87.796875 281.402344 87.535156 281.085938 87.285156 C 280.765625 87.039062 280.433594 86.808594 280.097656 86.582031 C 279.425781 86.128906 278.734375 85.710938 278.050781 85.335938 C 277.351562 84.972656 276.660156 84.644531 276.003906 84.359375 C 274.695312 83.773438 273.476562 83.390625 272.617188 83.125 C 271.753906 82.867188 271.222656 82.742188 271.222656 82.742188 " fill-opacity="1" fill-rule="nonzero"/></g><path fill="#000000" d="M 283.703125 97.910156 L 283.378906 98.128906 C 294.597656 114.925781 301.285156 134.726562 302.367188 154.867188 C 303.503906 174.996094 299.222656 195.402344 290.011719 213.28125 L 288.226562 216.601562 C 288.074219 216.875 287.929688 217.15625 287.777344 217.429688 L 287.292969 218.238281 L 286.328125 219.855469 L 285.367188 221.476562 C 285.027344 222.003906 284.679688 222.527344 284.335938 223.054688 L 283.304688 224.628906 L 282.785156 225.417969 C 282.621094 225.679688 282.425781 225.929688 282.246094 226.1875 L 280.046875 229.246094 C 279.871094 229.503906 279.671875 229.746094 279.476562 229.992188 L 278.894531 230.734375 L 277.734375 232.214844 L 277.152344 232.957031 L 276.859375 233.324219 L 276.554688 233.683594 L 275.328125 235.109375 C 274.511719 236.0625 273.710938 237.03125 272.839844 237.933594 C 269.480469 241.664062 265.804688 245.097656 261.96875 248.324219 L 260.523438 249.523438 L 259.800781 250.125 L 259.050781 250.695312 L 256.0625 252.976562 L 252.980469 255.128906 L 252.210938 255.664062 C 251.953125 255.839844 251.683594 256.003906 251.417969 256.175781 L 249.835938 257.183594 C 245.597656 259.855469 241.214844 262.300781 236.652344 264.363281 L 235.800781 264.765625 L 235.378906 264.964844 L 234.945312 265.144531 L 233.214844 265.875 L 231.484375 266.601562 L 231.050781 266.785156 C 230.90625 266.84375 230.757812 266.894531 230.613281 266.949219 L 227.976562 267.933594 L 227.097656 268.257812 C 226.800781 268.367188 226.511719 268.484375 226.214844 268.574219 L 222.640625 269.730469 C 222.34375 269.824219 222.050781 269.929688 221.75 270.011719 L 220.84375 270.261719 L 219.039062 270.761719 L 217.230469 271.261719 L 215.402344 271.683594 L 213.574219 272.109375 L 212.664062 272.320312 C 212.359375 272.386719 212.050781 272.4375 211.742188 272.496094 L 208.054688 273.179688 C 203.121094 273.972656 198.140625 274.457031 193.148438 274.644531 L 193.238281 277.265625 C 198.347656 277.027344 203.433594 276.484375 208.472656 275.628906 L 212.234375 274.894531 C 212.546875 274.832031 212.863281 274.777344 213.171875 274.703125 L 214.105469 274.480469 L 215.964844 274.03125 L 217.828125 273.582031 L 219.667969 273.054688 L 221.511719 272.527344 L 222.429688 272.261719 C 222.738281 272.175781 223.039062 272.066406 223.339844 271.96875 L 226.972656 270.753906 C 227.277344 270.65625 227.574219 270.535156 227.871094 270.425781 L 228.765625 270.082031 L 230.554688 269.398438 L 231.449219 269.054688 C 231.597656 269 231.746094 268.945312 231.894531 268.882812 L 232.332031 268.691406 L 235.847656 267.175781 L 236.285156 266.984375 L 236.71875 266.777344 L 237.582031 266.359375 C 242.214844 264.214844 246.65625 261.683594 250.945312 258.925781 L 252.546875 257.878906 C 252.816406 257.707031 253.085938 257.535156 253.347656 257.355469 L 254.128906 256.800781 L 257.242188 254.582031 L 260.261719 252.234375 L 261.019531 251.648438 L 261.75 251.03125 L 263.207031 249.792969 C 267.078125 246.476562 270.777344 242.953125 274.160156 239.132812 C 275.035156 238.210938 275.839844 237.21875 276.660156 236.246094 L 277.890625 234.78125 L 278.199219 234.417969 L 278.492188 234.039062 L 279.074219 233.28125 L 280.242188 231.769531 L 280.824219 231.011719 C 281.019531 230.757812 281.21875 230.507812 281.398438 230.246094 L 283.597656 227.121094 C 286.449219 222.898438 289.054688 218.511719 291.351562 213.964844 C 300.519531 195.757812 304.644531 175.097656 303.3125 154.8125 C 302.035156 134.507812 295.113281 114.660156 283.703125 97.910156 " fill-opacity="1" fill-rule="nonzero"/><g clip-path="url(#60e52c2a3c)"><path fill="#000000" d="M 221.941406 292.535156 C 221.941406 292.535156 221.84375 291.917969 221.605469 290.921875 C 221.363281 289.929688 220.984375 288.5625 220.433594 287.066406 C 219.335938 284.070312 217.554688 280.558594 214.996094 278.429688 C 213.722656 277.386719 212.351562 276.703125 211.023438 276.332031 C 210.359375 276.140625 209.703125 276.027344 209.074219 275.96875 C 208.753906 275.933594 208.445312 275.921875 208.140625 275.910156 C 207.835938 275.890625 207.539062 275.886719 207.253906 275.886719 C 206.101562 275.894531 205.101562 276.050781 204.386719 276.203125 C 204.027344 276.277344 203.738281 276.355469 203.542969 276.410156 C 203.347656 276.472656 203.238281 276.503906 203.238281 276.503906 C 203.238281 276.503906 202.3125 277.894531 201.910156 279.898438 C 201.707031 280.898438 201.640625 282.054688 201.921875 283.261719 C 202.207031 284.472656 202.835938 285.734375 204.0625 286.941406 C 204.675781 287.558594 205.402344 288.078125 206.21875 288.574219 C 207.035156 289.066406 207.9375 289.511719 208.886719 289.914062 C 209.359375 290.117188 209.84375 290.304688 210.339844 290.484375 L 210.710938 290.617188 L 211.082031 290.734375 C 211.328125 290.808594 211.578125 290.882812 211.828125 290.953125 C 212.824219 291.234375 213.828125 291.476562 214.796875 291.679688 C 216.742188 292.117188 218.519531 292.28125 219.824219 292.398438 C 221.125 292.507812 221.941406 292.535156 221.941406 292.535156 " fill-opacity="1" fill-rule="nonzero"/></g><path fill="#000000" d="M 245.480469 283.375 C 245.480469 283.375 245.273438 282.804688 244.867188 281.90625 C 244.460938 281.003906 243.851562 279.773438 243.058594 278.457031 C 241.472656 275.8125 239.171875 272.84375 236.335938 271.238281 C 234.921875 270.445312 233.515625 270.089844 232.199219 270 C 230.859375 269.867188 229.609375 270.003906 228.527344 270.25 C 227.984375 270.367188 227.492188 270.527344 227.039062 270.667969 C 226.589844 270.804688 226.191406 270.949219 225.867188 271.078125 C 225.210938 271.34375 224.828125 271.558594 224.828125 271.558594 C 224.828125 271.558594 224.214844 273.070312 224.210938 275.058594 C 224.210938 276.054688 224.363281 277.167969 224.855469 278.257812 C 225.347656 279.347656 226.175781 280.421875 227.554688 281.320312 C 228.242188 281.769531 229.035156 282.15625 229.902344 282.484375 C 230.769531 282.8125 231.710938 283.09375 232.671875 283.269531 C 233.636719 283.464844 234.640625 283.601562 235.640625 283.703125 C 236.136719 283.753906 236.640625 283.792969 237.132812 283.824219 C 237.378906 283.839844 237.625 283.855469 237.871094 283.863281 C 238.109375 283.867188 238.347656 283.867188 238.585938 283.871094 C 240.476562 283.871094 242.210938 283.761719 243.46875 283.648438 C 243.785156 283.625 244.0625 283.585938 244.308594 283.554688 C 244.554688 283.519531 244.769531 283.488281 244.941406 283.460938 C 245.289062 283.40625 245.480469 283.375 245.480469 283.375 " fill-opacity="1" fill-rule="nonzero"/><path fill="#000000" d="M 266.761719 270.058594 C 266.761719 270.058594 266.464844 269.554688 265.914062 268.773438 C 265.367188 267.992188 264.566406 266.9375 263.578125 265.824219 C 261.601562 263.601562 258.855469 261.15625 255.914062 260.195312 C 255.542969 260.074219 255.183594 259.984375 254.824219 259.90625 C 254.460938 259.828125 254.105469 259.769531 253.753906 259.734375 C 253.054688 259.660156 252.382812 259.671875 251.742188 259.738281 C 250.460938 259.871094 249.328125 260.277344 248.324219 260.667969 C 247.335938 261.078125 246.523438 261.5625 245.957031 261.945312 C 245.390625 262.328125 245.070312 262.609375 245.070312 262.609375 C 245.070312 262.609375 245.050781 262.707031 245.027344 262.878906 C 245.007812 263.050781 244.976562 263.300781 244.960938 263.609375 C 244.929688 264.226562 244.9375 265.078125 245.117188 266.011719 C 245.484375 267.882812 246.503906 270.113281 249.453125 271.355469 C 249.636719 271.429688 249.828125 271.503906 250.023438 271.570312 C 250.21875 271.632812 250.414062 271.691406 250.617188 271.746094 C 251.019531 271.851562 251.445312 271.941406 251.878906 272.011719 C 252.753906 272.15625 253.683594 272.230469 254.640625 272.25 C 256.5625 272.3125 258.523438 272.054688 260.328125 271.746094 C 261.230469 271.585938 262.09375 271.421875 262.863281 271.230469 C 263.632812 271.03125 264.320312 270.835938 264.894531 270.660156 C 266.050781 270.3125 266.761719 270.058594 266.761719 270.058594 " fill-opacity="1" fill-rule="nonzero"/><path fill="#000000" d="M 285.089844 253.09375 C 285.089844 253.09375 284.714844 252.667969 284.054688 252.027344 C 283.394531 251.386719 282.449219 250.53125 281.3125 249.65625 C 280.179688 248.78125 278.855469 247.890625 277.449219 247.175781 C 276.03125 246.449219 274.523438 245.886719 273.027344 245.683594 C 271.535156 245.480469 270.199219 245.660156 269.023438 246.03125 C 267.824219 246.378906 266.789062 246.925781 265.9375 247.511719 C 265.511719 247.804688 265.132812 248.105469 264.800781 248.390625 C 264.464844 248.671875 264.167969 248.929688 263.929688 249.15625 C 263.457031 249.613281 263.199219 249.929688 263.199219 249.929688 C 263.199219 249.929688 263.195312 251.449219 263.886719 253.164062 C 264.585938 254.875 265.957031 256.800781 268.957031 257.410156 C 269.707031 257.5625 270.523438 257.625 271.386719 257.609375 C 271.816406 257.605469 272.257812 257.578125 272.703125 257.535156 C 273.140625 257.484375 273.585938 257.417969 274.035156 257.335938 C 274.933594 257.171875 275.839844 256.953125 276.734375 256.699219 C 277.183594 256.574219 277.625 256.4375 278.0625 256.296875 C 278.277344 256.226562 278.496094 256.152344 278.707031 256.082031 C 278.917969 256 279.121094 255.921875 279.328125 255.84375 C 280.953125 255.203125 282.402344 254.523438 283.445312 254.003906 C 283.703125 253.871094 283.941406 253.753906 284.144531 253.644531 C 284.34375 253.53125 284.515625 253.429688 284.65625 253.351562 C 284.9375 253.183594 285.089844 253.09375 285.089844 253.09375 " fill-opacity="1" fill-rule="nonzero"/><path fill="#000000" d="M 299.851562 233.078125 C 299.851562 233.078125 299.421875 232.746094 298.679688 232.257812 C 297.9375 231.773438 296.886719 231.132812 295.652344 230.507812 C 293.1875 229.261719 289.988281 228.085938 287.121094 228.265625 C 286.941406 228.273438 286.765625 228.292969 286.59375 228.3125 C 286.417969 228.328125 286.242188 228.355469 286.074219 228.382812 C 285.734375 228.4375 285.410156 228.511719 285.09375 228.597656 C 284.46875 228.777344 283.890625 229.015625 283.363281 229.292969 C 282.835938 229.574219 282.359375 229.894531 281.925781 230.234375 C 281.707031 230.402344 281.507812 230.582031 281.308594 230.753906 C 281.109375 230.925781 280.917969 231.101562 280.738281 231.273438 C 280.023438 231.96875 279.488281 232.664062 279.132812 233.191406 C 278.777344 233.714844 278.597656 234.070312 278.597656 234.070312 C 278.597656 234.070312 278.671875 234.429688 278.867188 234.980469 C 279.050781 235.519531 279.355469 236.25 279.835938 236.992188 C 280.316406 237.734375 280.976562 238.492188 281.878906 239.074219 C 282.785156 239.65625 283.945312 240.070312 285.425781 240.085938 C 286.886719 240.089844 288.53125 239.691406 290.1875 239.078125 C 291.867188 238.476562 293.453125 237.582031 294.902344 236.707031 C 295.625 236.265625 296.296875 235.824219 296.910156 235.40625 C 297.5 234.980469 298.023438 234.574219 298.457031 234.230469 C 299.328125 233.539062 299.851562 233.078125 299.851562 233.078125 " fill-opacity="1" fill-rule="nonzero"/><path fill="#000000" d="M 310.558594 210.761719 C 310.558594 210.761719 310.089844 210.523438 309.304688 210.199219 C 308.515625 209.875 307.40625 209.457031 306.125 209.09375 C 303.566406 208.359375 300.320312 207.824219 297.621094 208.503906 C 296.945312 208.671875 296.335938 208.910156 295.789062 209.199219 C 295.238281 209.484375 294.757812 209.824219 294.292969 210.175781 C 293.382812 210.886719 292.6875 211.71875 292.160156 212.515625 C 291.894531 212.914062 291.671875 213.304688 291.488281 213.667969 C 291.296875 214.023438 291.132812 214.347656 291.007812 214.625 C 290.757812 215.179688 290.648438 215.542969 290.648438 215.542969 C 290.648438 215.542969 291.171875 216.847656 292.363281 218.078125 C 293.558594 219.300781 295.410156 220.46875 298.195312 219.957031 C 298.894531 219.828125 299.617188 219.597656 300.351562 219.292969 C 300.71875 219.136719 301.085938 218.964844 301.453125 218.777344 C 301.8125 218.582031 302.171875 218.371094 302.527344 218.148438 C 303.945312 217.25 305.335938 216.148438 306.554688 215.066406 C 307.722656 213.960938 308.722656 212.882812 309.433594 212.082031 C 310.140625 211.28125 310.558594 210.761719 310.558594 210.761719 " fill-opacity="1" fill-rule="nonzero"/><path fill="#000000" d="M 316.796875 186.96875 C 316.796875 186.96875 316.3125 186.832031 315.511719 186.664062 C 314.707031 186.5 313.589844 186.308594 312.320312 186.191406 C 309.773438 185.960938 306.664062 186.046875 304.207031 187.164062 C 301.753906 188.28125 300.550781 190.253906 299.777344 191.933594 C 299.414062 192.777344 299.207031 193.5625 299.085938 194.136719 C 298.96875 194.710938 298.9375 195.074219 298.9375 195.074219 C 298.9375 195.074219 299.660156 196.199219 301.003906 197.136719 C 302.347656 198.0625 304.308594 198.816406 306.867188 197.835938 C 307.027344 197.773438 307.1875 197.707031 307.347656 197.632812 C 307.503906 197.554688 307.660156 197.476562 307.816406 197.390625 C 308.128906 197.214844 308.441406 197.023438 308.75 196.808594 C 309.371094 196.382812 309.984375 195.882812 310.582031 195.335938 C 311.179688 194.789062 311.757812 194.195312 312.308594 193.582031 C 312.589844 193.28125 312.839844 192.964844 313.085938 192.652344 C 313.332031 192.339844 313.570312 192.023438 313.800781 191.714844 C 314.714844 190.472656 315.476562 189.289062 316.011719 188.414062 C 316.28125 187.976562 316.457031 187.613281 316.59375 187.363281 C 316.726562 187.109375 316.796875 186.96875 316.796875 186.96875 " fill-opacity="1" fill-rule="nonzero"/><g clip-path="url(#2dc7a298a9)"><path fill="#000000" d="M 318.535156 162.59375 C 318.535156 162.59375 318.054688 162.550781 317.269531 162.535156 C 316.484375 162.523438 315.394531 162.542969 314.175781 162.660156 C 311.75 162.894531 308.777344 163.527344 306.699219 165.015625 C 306.179688 165.390625 305.742188 165.796875 305.367188 166.230469 C 304.984375 166.660156 304.664062 167.113281 304.402344 167.570312 C 304.140625 168.03125 303.9375 168.5 303.773438 168.957031 C 303.691406 169.1875 303.621094 169.417969 303.5625 169.640625 C 303.496094 169.863281 303.4375 170.085938 303.390625 170.300781 C 303.195312 171.160156 303.136719 171.933594 303.128906 172.496094 C 303.121094 173.058594 303.144531 173.40625 303.144531 173.40625 C 303.144531 173.40625 304.035156 174.335938 305.472656 174.96875 C 306.914062 175.597656 308.898438 175.949219 311.113281 174.5625 C 313.316406 173.179688 315.265625 170.242188 316.558594 167.582031 C 316.722656 167.25 316.882812 166.921875 317.023438 166.605469 C 317.164062 166.289062 317.292969 165.976562 317.414062 165.683594 C 317.65625 165.089844 317.863281 164.546875 318.03125 164.089844 C 318.199219 163.632812 318.328125 163.257812 318.414062 163 C 318.5 162.738281 318.535156 162.59375 318.535156 162.59375 " fill-opacity="1" fill-rule="nonzero"/></g><path fill="#000000" d="M 315.671875 138.414062 C 315.671875 138.414062 313.835938 138.601562 311.585938 139.265625 C 310.460938 139.59375 309.234375 140.042969 308.078125 140.628906 C 306.921875 141.210938 305.855469 141.933594 304.996094 142.824219 C 304.140625 143.714844 303.613281 144.683594 303.300781 145.640625 C 302.976562 146.597656 302.84375 147.550781 302.835938 148.390625 C 302.828125 148.8125 302.855469 149.207031 302.878906 149.5625 C 302.902344 149.917969 302.945312 150.238281 302.988281 150.5 C 303.070312 151.03125 303.167969 151.351562 303.167969 151.351562 C 303.167969 151.351562 304.183594 152.058594 305.660156 152.390625 C 306.394531 152.554688 307.238281 152.625 308.136719 152.445312 C 309.035156 152.261719 309.96875 151.828125 310.871094 150.976562 C 311.320312 150.546875 311.742188 150.035156 312.136719 149.464844 C 312.523438 148.890625 312.894531 148.257812 313.203125 147.59375 C 313.519531 146.929688 313.804688 146.230469 314.0625 145.527344 C 314.1875 145.175781 314.308594 144.824219 314.421875 144.476562 C 314.535156 144.125 314.628906 143.78125 314.71875 143.441406 C 314.898438 142.761719 315.054688 142.105469 315.179688 141.507812 C 315.308594 140.90625 315.414062 140.363281 315.480469 139.90625 C 315.617188 138.988281 315.671875 138.414062 315.671875 138.414062 " fill-opacity="1" fill-rule="nonzero"/><path fill="#000000" d="M 308.363281 115.34375 C 308.363281 115.34375 306.671875 115.851562 304.683594 116.875 C 302.699219 117.894531 300.386719 119.433594 299.125 121.402344 C 298.808594 121.894531 298.570312 122.394531 298.402344 122.886719 C 298.230469 123.378906 298.105469 123.871094 298.042969 124.347656 C 297.90625 125.308594 297.980469 126.210938 298.117188 127.007812 C 298.371094 128.597656 298.972656 129.71875 298.972656 129.71875 C 298.972656 129.71875 299.246094 129.835938 299.691406 129.960938 C 300.136719 130.085938 300.765625 130.21875 301.484375 130.234375 C 302.917969 130.269531 304.71875 129.878906 306.125 127.945312 C 306.816406 126.980469 307.316406 125.722656 307.6875 124.359375 C 307.878906 123.675781 308.011719 122.976562 308.117188 122.277344 C 308.226562 121.574219 308.304688 120.875 308.359375 120.207031 C 308.425781 119.535156 308.4375 118.902344 308.445312 118.320312 C 308.453125 117.738281 308.449219 117.214844 308.4375 116.773438 C 308.425781 116.332031 308.410156 115.972656 308.398438 115.726562 C 308.375 115.480469 308.363281 115.34375 308.363281 115.34375 " fill-opacity="1" fill-rule="nonzero"/><path fill="#000000" d="M 296.925781 94.199219 C 296.925781 94.199219 295.433594 94.972656 293.75 96.289062 C 292.0625 97.601562 290.183594 99.449219 289.359375 101.507812 C 288.945312 102.542969 288.808594 103.546875 288.863281 104.464844 C 288.890625 104.921875 288.960938 105.359375 289.0625 105.769531 C 289.152344 106.1875 289.273438 106.578125 289.40625 106.9375 C 289.675781 107.65625 290 108.246094 290.261719 108.660156 C 290.390625 108.867188 290.496094 109.035156 290.574219 109.144531 C 290.652344 109.257812 290.699219 109.316406 290.699219 109.316406 C 290.699219 109.316406 291.792969 109.566406 293.144531 109.339844 C 294.496094 109.105469 296.109375 108.40625 297.066406 106.351562 C 297.304688 105.839844 297.496094 105.257812 297.625 104.648438 C 297.757812 104.039062 297.839844 103.386719 297.886719 102.71875 C 297.933594 102.054688 297.949219 101.367188 297.929688 100.691406 C 297.902344 100.023438 297.847656 99.359375 297.777344 98.730469 C 297.707031 98.097656 297.625 97.496094 297.535156 96.949219 C 297.441406 96.40625 297.335938 95.921875 297.246094 95.511719 C 297.066406 94.699219 296.925781 94.199219 296.925781 94.199219 " fill-opacity="1" fill-rule="nonzero"/><path fill="#000000" d="M 211.953125 252.886719 C 211.953125 252.886719 212.144531 253.484375 212.402344 254.472656 C 212.660156 255.460938 212.984375 256.839844 213.242188 258.40625 C 213.761719 261.539062 214.007812 265.414062 212.773438 268.4375 C 212.164062 269.96875 211.21875 271.054688 210.171875 271.886719 C 209.648438 272.300781 209.09375 272.644531 208.539062 272.933594 C 208.261719 273.074219 207.984375 273.207031 207.710938 273.316406 C 207.429688 273.421875 207.15625 273.511719 206.886719 273.589844 C 205.808594 273.90625 204.820312 274.042969 204.105469 274.101562 C 203.746094 274.128906 203.457031 274.136719 203.257812 274.136719 C 203.054688 274.140625 202.945312 274.132812 202.945312 274.132812 C 202.945312 274.132812 201.726562 272.960938 200.957031 271.074219 C 200.566406 270.132812 200.289062 269.011719 200.292969 267.777344 C 200.296875 266.539062 200.585938 265.183594 201.296875 263.777344 C 201.652344 263.085938 202.09375 262.359375 202.589844 261.679688 C 203.089844 261 203.640625 260.339844 204.21875 259.714844 C 204.507812 259.402344 204.804688 259.097656 205.105469 258.800781 L 205.332031 258.582031 L 205.554688 258.351562 C 205.707031 258.203125 205.855469 258.054688 206.003906 257.90625 C 206.605469 257.316406 207.203125 256.769531 207.78125 256.273438 C 208.933594 255.304688 209.964844 254.40625 210.722656 253.816406 C 211.476562 253.21875 211.953125 252.886719 211.953125 252.886719 " fill-opacity="1" fill-rule="nonzero"/><path fill="#000000" d="M 228.851562 247.625 C 228.851562 247.625 229.140625 248.15625 229.566406 249.046875 C 229.988281 249.941406 230.550781 251.191406 231.078125 252.636719 C 232.136719 255.519531 233.09375 259.207031 232.445312 262.257812 C 232.128906 263.789062 231.449219 265.039062 230.613281 266.039062 C 229.757812 266.996094 228.75 267.714844 227.792969 268.238281 C 227.3125 268.496094 226.851562 268.722656 226.414062 268.878906 C 225.980469 269.035156 225.582031 269.152344 225.246094 269.238281 C 224.570312 269.410156 224.140625 269.464844 224.140625 269.464844 C 224.140625 269.464844 222.773438 268.605469 221.695312 266.972656 C 221.152344 266.15625 220.679688 265.148438 220.453125 263.972656 C 220.226562 262.792969 220.242188 261.445312 220.65625 259.953125 C 220.859375 259.210938 221.152344 258.464844 221.507812 257.738281 C 221.859375 257.007812 222.273438 256.300781 222.703125 255.570312 C 223.132812 254.851562 223.597656 254.160156 224.070312 253.503906 C 224.304688 253.175781 224.542969 252.855469 224.78125 252.550781 C 224.898438 252.398438 225.015625 252.246094 225.132812 252.097656 C 225.25 251.941406 225.363281 251.789062 225.476562 251.640625 C 226.382812 250.445312 227.230469 249.453125 227.851562 248.761719 C 228.011719 248.59375 228.148438 248.429688 228.269531 248.285156 C 228.390625 248.144531 228.496094 248.023438 228.582031 247.925781 C 228.757812 247.730469 228.851562 247.625 228.851562 247.625 " fill-opacity="1" fill-rule="nonzero"/><path fill="#000000" d="M 244.617188 239.21875 C 244.617188 239.21875 244.988281 239.671875 245.550781 240.441406 C 246.113281 241.210938 246.871094 242.300781 247.628906 243.570312 C 249.152344 246.117188 250.691406 249.410156 250.660156 252.46875 C 250.65625 252.851562 250.628906 253.226562 250.578125 253.578125 C 250.519531 253.925781 250.445312 254.261719 250.347656 254.582031 C 250.160156 255.226562 249.894531 255.820312 249.582031 256.367188 C 248.957031 257.445312 248.15625 258.355469 247.320312 258.992188 C 246.496094 259.648438 245.683594 260.113281 245.085938 260.414062 C 244.484375 260.714844 244.089844 260.847656 244.089844 260.847656 C 244.089844 260.847656 244 260.816406 243.839844 260.738281 C 243.683594 260.660156 243.457031 260.546875 243.191406 260.390625 C 242.65625 260.074219 241.957031 259.585938 241.289062 258.910156 C 239.945312 257.558594 238.761719 255.417969 239.023438 252.46875 C 239.042969 252.285156 239.0625 252.101562 239.089844 251.917969 C 239.113281 251.726562 239.140625 251.535156 239.175781 251.34375 C 239.242188 250.960938 239.324219 250.574219 239.421875 250.191406 C 239.621094 249.421875 239.875 248.65625 240.164062 247.90625 C 240.761719 246.429688 241.429688 244.921875 242.101562 243.648438 C 242.429688 243.007812 242.769531 242.429688 243.0625 241.890625 C 243.355469 241.34375 243.621094 240.863281 243.851562 240.46875 C 244.3125 239.679688 244.617188 239.21875 244.617188 239.21875 " fill-opacity="1" fill-rule="nonzero"/><path fill="#000000" d="M 258.644531 227.929688 C 258.644531 227.929688 259.078125 228.292969 259.75 228.917969 C 260.421875 229.550781 261.335938 230.445312 262.285156 231.515625 C 263.238281 232.589844 264.226562 233.839844 265.050781 235.1875 C 265.859375 236.523438 266.492188 237.953125 266.742188 239.398438 C 266.988281 240.835938 266.828125 242.15625 266.445312 243.3125 C 266.03125 244.441406 265.40625 245.410156 264.753906 246.195312 C 264.429688 246.589844 264.101562 246.933594 263.789062 247.234375 C 263.46875 247.527344 263.160156 247.761719 262.898438 247.953125 C 262.375 248.339844 262.023438 248.535156 262.023438 248.535156 C 262.023438 248.535156 260.535156 248.265625 259.027344 247.234375 C 257.515625 246.207031 255.996094 244.402344 255.691406 241.53125 C 255.613281 240.816406 255.613281 240.070312 255.671875 239.3125 C 255.699219 238.933594 255.742188 238.554688 255.792969 238.175781 C 255.839844 237.785156 255.898438 237.394531 255.960938 237.003906 C 256.09375 236.230469 256.261719 235.464844 256.449219 234.730469 C 256.546875 234.359375 256.644531 234 256.746094 233.648438 C 256.800781 233.476562 256.851562 233.300781 256.902344 233.132812 C 256.953125 232.957031 257 232.78125 257.046875 232.613281 C 257.429688 231.253906 257.835938 230.089844 258.148438 229.265625 C 258.226562 229.0625 258.296875 228.875 258.359375 228.710938 C 258.417969 228.546875 258.46875 228.402344 258.511719 228.285156 C 258.597656 228.054688 258.644531 227.929688 258.644531 227.929688 " fill-opacity="1" fill-rule="nonzero"/><path fill="#000000" d="M 270.382812 214.117188 C 270.382812 214.117188 270.855469 214.382812 271.605469 214.855469 C 272.355469 215.328125 273.378906 216.011719 274.472656 216.851562 C 276.65625 218.535156 279.109375 220.859375 280.132812 223.523438 C 280.195312 223.691406 280.253906 223.855469 280.304688 224.019531 C 280.351562 224.183594 280.394531 224.34375 280.429688 224.503906 C 280.5 224.824219 280.546875 225.140625 280.578125 225.453125 C 280.632812 226.078125 280.609375 226.683594 280.527344 227.261719 C 280.445312 227.839844 280.300781 228.390625 280.125 228.90625 C 280.035156 229.164062 279.941406 229.414062 279.832031 229.648438 C 279.71875 229.882812 279.601562 230.105469 279.476562 230.316406 C 278.988281 231.167969 278.449219 231.851562 278.035156 232.320312 C 277.617188 232.785156 277.324219 233.039062 277.324219 233.039062 C 277.324219 233.039062 276.964844 233.046875 276.402344 232.96875 C 275.832031 232.882812 275.058594 232.707031 274.246094 232.355469 C 273.429688 232.003906 272.578125 231.476562 271.835938 230.703125 C 271.089844 229.929688 270.460938 228.914062 270.054688 227.589844 C 269.636719 226.25 269.480469 224.734375 269.472656 223.230469 C 269.484375 221.746094 269.546875 220.195312 269.695312 218.855469 C 269.769531 218.183594 269.851562 217.554688 269.941406 216.992188 C 270.011719 216.417969 270.078125 215.902344 270.144531 215.476562 C 270.273438 214.625 270.382812 214.117188 270.382812 214.117188 " fill-opacity="1" fill-rule="nonzero"/><path fill="#000000" d="M 279.390625 198.246094 C 279.390625 198.246094 279.890625 198.410156 280.683594 198.722656 C 281.480469 199.03125 282.570312 199.488281 283.75 200.085938 C 286.117188 201.28125 288.847656 203.027344 290.269531 205.351562 C 290.625 205.929688 290.882812 206.519531 291.0625 207.105469 C 291.242188 207.691406 291.34375 208.273438 291.355469 208.828125 C 291.394531 209.945312 291.1875 210.996094 290.90625 211.902344 C 290.761719 212.351562 290.597656 212.765625 290.433594 213.132812 C 290.261719 213.496094 290.078125 213.804688 289.917969 214.0625 C 289.601562 214.578125 289.363281 214.867188 289.363281 214.867188 C 289.363281 214.867188 287.992188 215.15625 286.335938 214.796875 C 284.675781 214.445312 282.742188 213.433594 281.488281 211.0625 C 281.171875 210.472656 280.914062 209.832031 280.703125 209.15625 C 280.597656 208.820312 280.503906 208.476562 280.421875 208.128906 C 280.324219 207.777344 280.238281 207.417969 280.160156 207.058594 C 279.851562 205.621094 279.6875 204.171875 279.597656 202.875 C 279.460938 201.558594 279.40625 200.402344 279.390625 199.574219 C 279.375 198.746094 279.390625 198.246094 279.390625 198.246094 " fill-opacity="1" fill-rule="nonzero"/><path fill="#000000" d="M 285.269531 180.789062 C 285.269531 180.789062 285.765625 180.855469 286.570312 181.003906 C 287.378906 181.15625 288.488281 181.390625 289.714844 181.746094 C 292.164062 182.449219 295.101562 183.617188 296.832031 185.546875 C 298.5625 187.476562 298.886719 189.828125 298.609375 191.617188 C 298.492188 192.519531 298.269531 193.296875 298.082031 193.84375 C 297.890625 194.390625 297.730469 194.710938 297.730469 194.710938 C 297.730469 194.710938 297.417969 194.839844 296.898438 194.96875 C 296.378906 195.09375 295.65625 195.214844 294.839844 195.199219 C 293.199219 195.175781 291.1875 194.582031 289.597656 192.582031 C 289.496094 192.460938 289.402344 192.332031 289.308594 192.199219 C 289.207031 192.066406 289.113281 191.929688 289.019531 191.789062 C 288.832031 191.511719 288.65625 191.21875 288.488281 190.917969 C 288.148438 190.316406 287.851562 189.675781 287.585938 189.027344 C 287.320312 188.378906 287.085938 187.714844 286.878906 187.066406 C 286.785156 186.742188 286.667969 186.417969 286.570312 186.097656 C 286.464844 185.777344 286.375 185.464844 286.285156 185.15625 C 285.933594 183.933594 285.691406 182.847656 285.539062 182.0625 C 285.464844 181.671875 285.378906 181.351562 285.335938 181.132812 C 285.292969 180.910156 285.269531 180.789062 285.269531 180.789062 " fill-opacity="1" fill-rule="nonzero"/><path fill="#000000" d="M 287.863281 162.390625 C 287.863281 162.390625 288.34375 162.359375 289.128906 162.359375 C 289.914062 162.359375 291.003906 162.382812 292.222656 162.496094 C 294.664062 162.722656 297.585938 163.304688 299.597656 164.816406 C 300.097656 165.195312 300.519531 165.613281 300.871094 166.054688 C 301.210938 166.496094 301.480469 166.960938 301.691406 167.433594 C 301.902344 167.90625 302.058594 168.386719 302.171875 168.855469 C 302.226562 169.09375 302.269531 169.324219 302.304688 169.554688 C 302.335938 169.78125 302.355469 170.007812 302.367188 170.226562 C 302.417969 171.09375 302.347656 171.867188 302.261719 172.414062 C 302.183594 172.964844 302.074219 173.296875 302.074219 173.296875 C 302.074219 173.296875 300.996094 174.019531 299.453125 174.289062 C 297.910156 174.566406 295.90625 174.375 294.035156 172.773438 C 293.800781 172.574219 293.574219 172.359375 293.355469 172.128906 C 293.128906 171.898438 292.910156 171.652344 292.699219 171.398438 C 292.273438 170.890625 291.878906 170.34375 291.515625 169.773438 C 291.332031 169.492188 291.15625 169.203125 290.988281 168.914062 C 290.820312 168.625 290.640625 168.332031 290.480469 168.042969 C 290.15625 167.464844 289.859375 166.890625 289.597656 166.34375 C 289.335938 165.792969 289.089844 165.273438 288.867188 164.800781 C 288.652344 164.328125 288.46875 163.902344 288.320312 163.546875 C 288.171875 163.1875 288.058594 162.898438 287.984375 162.699219 C 287.90625 162.5 287.863281 162.390625 287.863281 162.390625 " fill-opacity="1" fill-rule="nonzero"/><path fill="#000000" d="M 286.933594 143.742188 C 286.933594 143.742188 288.722656 143.28125 291.054688 143.054688 C 292.21875 142.941406 293.519531 142.886719 294.800781 142.996094 C 296.078125 143.105469 297.355469 143.371094 298.421875 143.90625 C 299.492188 144.4375 300.28125 145.175781 300.867188 145.988281 C 301.441406 146.796875 301.78125 147.679688 302 148.488281 C 302.105469 148.894531 302.191406 149.28125 302.230469 149.632812 C 302.273438 149.984375 302.292969 150.300781 302.300781 150.570312 C 302.316406 151.101562 302.28125 151.433594 302.28125 151.433594 C 302.28125 151.433594 301.410156 152.308594 300.019531 152.84375 C 299.320312 153.113281 298.488281 153.300781 297.578125 153.269531 C 296.671875 153.242188 295.671875 152.996094 294.636719 152.417969 C 294.117188 152.128906 293.613281 151.769531 293.128906 151.367188 C 292.644531 150.964844 292.1875 150.519531 291.726562 150.050781 C 291.269531 149.585938 290.835938 149.097656 290.433594 148.609375 C 290.230469 148.363281 290.039062 148.117188 289.851562 147.875 C 289.660156 147.632812 289.476562 147.394531 289.292969 147.164062 C 288.933594 146.695312 288.613281 146.246094 288.328125 145.839844 C 288.050781 145.429688 287.800781 145.058594 287.589844 144.75 C 287.167969 144.128906 286.933594 143.742188 286.933594 143.742188 " fill-opacity="1" fill-rule="nonzero"/><path fill="#000000" d="M 282.492188 125.460938 C 282.492188 125.460938 284.085938 124.707031 286.234375 124.074219 C 288.386719 123.441406 291.066406 122.949219 293.289062 123.554688 C 293.84375 123.707031 294.34375 123.917969 294.792969 124.175781 C 295.242188 124.433594 295.617188 124.738281 295.960938 125.066406 C 296.640625 125.730469 297.148438 126.484375 297.492188 127.207031 C 298.167969 128.65625 298.300781 129.914062 298.300781 129.914062 C 298.300781 129.914062 298.136719 130.160156 297.816406 130.503906 C 297.5 130.84375 297.027344 131.28125 296.421875 131.664062 C 295.207031 132.433594 293.445312 132.96875 291.308594 132.25 C 290.230469 131.894531 289.144531 131.277344 288.136719 130.558594 C 287.636719 130.195312 287.132812 129.816406 286.660156 129.429688 C 286.183594 129.042969 285.738281 128.652344 285.324219 128.273438 C 284.921875 127.890625 284.519531 127.53125 284.175781 127.195312 C 283.828125 126.863281 283.527344 126.558594 283.277344 126.300781 C 283.03125 126.042969 282.835938 125.832031 282.703125 125.6875 C 282.566406 125.539062 282.492188 125.460938 282.492188 125.460938 " fill-opacity="1" fill-rule="nonzero"/><path fill="#000000" d="M 274.625 108.203125 C 274.625 108.203125 275.984375 107.210938 277.878906 106.238281 C 279.777344 105.269531 282.214844 104.324219 284.414062 104.492188 C 285.507812 104.574219 286.414062 104.945312 287.179688 105.433594 C 287.558594 105.679688 287.90625 105.957031 288.210938 106.25 C 288.507812 106.546875 288.765625 106.855469 288.992188 107.164062 C 289.445312 107.777344 289.765625 108.375 289.96875 108.816406 C 290.070312 109.039062 290.132812 109.222656 290.179688 109.351562 C 290.222656 109.480469 290.242188 109.554688 290.242188 109.554688 C 290.242188 109.554688 289.804688 110.597656 288.808594 111.535156 C 287.816406 112.472656 286.265625 113.296875 284.125 113.015625 C 283.589844 112.949219 283.054688 112.808594 282.496094 112.636719 C 281.941406 112.460938 281.386719 112.246094 280.847656 112 C 280.304688 111.753906 279.773438 111.480469 279.265625 111.195312 C 278.75 110.921875 278.253906 110.632812 277.792969 110.351562 C 277.332031 110.070312 276.90625 109.792969 276.53125 109.535156 C 276.144531 109.285156 275.800781 109.054688 275.519531 108.855469 C 274.953125 108.460938 274.625 108.203125 274.625 108.203125 " fill-opacity="1" fill-rule="nonzero"/><g clip-path="url(#f1e8c94e77)"><path fill="#000000" d="M 103.253906 82.539062 C 103.253906 82.539062 102.722656 82.664062 101.855469 82.925781 C 100.996094 83.191406 99.773438 83.574219 98.46875 84.164062 C 97.808594 84.453125 97.117188 84.78125 96.417969 85.144531 C 95.730469 85.523438 95.039062 85.941406 94.363281 86.394531 C 94.027344 86.621094 93.695312 86.855469 93.375 87.101562 C 93.058594 87.351562 92.753906 87.613281 92.457031 87.878906 C 91.871094 88.417969 91.324219 88.980469 90.863281 89.582031 C 90.414062 90.1875 90.0625 90.789062 89.792969 91.378906 C 89.519531 91.96875 89.328125 92.542969 89.21875 93.105469 C 88.992188 94.222656 89.019531 95.246094 89.160156 96.101562 C 89.304688 96.964844 89.574219 97.675781 89.792969 98.164062 C 90.015625 98.65625 90.199219 98.929688 90.199219 98.929688 C 90.199219 98.929688 90.523438 98.988281 91.054688 99.007812 C 91.589844 99.023438 92.324219 98.996094 93.167969 98.835938 C 94.015625 98.683594 94.960938 98.390625 95.886719 97.863281 C 96.34375 97.589844 96.816406 97.277344 97.273438 96.882812 C 97.730469 96.492188 98.167969 96.023438 98.582031 95.464844 C 99.003906 94.917969 99.390625 94.308594 99.734375 93.65625 C 99.90625 93.328125 100.066406 92.992188 100.21875 92.648438 C 100.378906 92.308594 100.535156 91.964844 100.675781 91.613281 C 100.964844 90.910156 101.21875 90.1875 101.449219 89.46875 C 101.691406 88.765625 101.90625 88.0625 102.09375 87.390625 C 102.457031 86.039062 102.769531 84.847656 102.960938 83.964844 C 103.15625 83.085938 103.253906 82.539062 103.253906 82.539062 " fill-opacity="1" fill-rule="nonzero"/></g><path fill="#000000" d="M 91.066406 97.964844 L 90.742188 97.746094 C 79.300781 114.539062 72.363281 134.4375 71.082031 154.792969 C 69.75 175.128906 73.882812 195.84375 83.074219 214.097656 C 85.378906 218.65625 87.992188 223.054688 90.847656 227.289062 L 93.058594 230.417969 C 93.234375 230.683594 93.433594 230.933594 93.628906 231.1875 L 94.214844 231.945312 L 95.382812 233.464844 L 96.261719 234.601562 L 96.570312 234.96875 L 97.804688 236.433594 C 98.628906 237.410156 99.433594 238.402344 100.3125 239.332031 C 103.699219 243.160156 107.410156 246.695312 111.289062 250.019531 L 112.753906 251.257812 L 113.488281 251.875 L 114.242188 252.464844 L 117.273438 254.816406 L 120.394531 257.042969 L 121.175781 257.597656 C 121.4375 257.78125 121.710938 257.949219 121.976562 258.125 L 123.585938 259.171875 C 127.882812 261.9375 132.339844 264.476562 136.984375 266.625 L 137.847656 267.042969 L 138.28125 267.25 L 138.71875 267.441406 L 140.480469 268.203125 L 142.246094 268.964844 L 142.683594 269.152344 C 142.832031 269.214844 142.984375 269.269531 143.132812 269.328125 L 144.027344 269.671875 L 145.820312 270.359375 L 146.71875 270.699219 C 147.015625 270.8125 147.3125 270.933594 147.617188 271.03125 L 151.257812 272.246094 C 151.5625 272.34375 151.863281 272.457031 152.171875 272.542969 L 153.09375 272.808594 L 154.941406 273.339844 L 156.785156 273.867188 L 160.519531 274.765625 L 161.453125 274.992188 C 161.765625 275.0625 162.082031 275.117188 162.394531 275.179688 L 166.164062 275.917969 C 171.214844 276.773438 176.316406 277.320312 181.4375 277.558594 L 181.53125 274.9375 C 176.523438 274.75 171.53125 274.261719 166.582031 273.46875 L 162.886719 272.78125 C 162.578125 272.722656 162.269531 272.671875 161.964844 272.605469 L 161.046875 272.394531 L 157.386719 271.546875 L 155.574219 271.046875 L 153.761719 270.542969 L 152.855469 270.292969 C 152.550781 270.210938 152.257812 270.101562 151.957031 270.011719 L 148.378906 268.851562 C 148.078125 268.757812 147.789062 268.640625 147.492188 268.535156 L 146.613281 268.207031 L 143.964844 267.222656 C 143.820312 267.167969 143.671875 267.117188 143.527344 267.054688 L 143.09375 266.875 L 139.625 265.414062 L 139.191406 265.230469 L 138.765625 265.03125 L 137.914062 264.628906 C 133.339844 262.5625 128.941406 260.109375 124.695312 257.429688 L 123.105469 256.417969 C 122.84375 256.246094 122.574219 256.085938 122.3125 255.910156 L 121.542969 255.371094 L 118.453125 253.210938 L 115.457031 250.925781 L 114.707031 250.355469 L 113.980469 249.753906 L 112.53125 248.546875 C 108.6875 245.3125 105 241.867188 101.632812 238.128906 C 100.757812 237.226562 99.957031 236.253906 99.136719 235.300781 L 97.90625 233.867188 L 97.601562 233.507812 L 97.308594 233.140625 L 96.726562 232.394531 L 95.558594 230.914062 L 94.976562 230.171875 C 94.78125 229.921875 94.585938 229.679688 94.40625 229.417969 L 92.203125 226.351562 C 92.019531 226.09375 91.824219 225.847656 91.660156 225.578125 L 91.140625 224.789062 L 90.105469 223.210938 C 89.761719 222.683594 89.414062 222.160156 89.074219 221.628906 L 88.105469 220.007812 L 87.140625 218.382812 L 86.65625 217.574219 C 86.503906 217.296875 86.355469 217.019531 86.207031 216.742188 L 84.414062 213.414062 C 75.179688 195.488281 70.890625 175.03125 72.027344 154.851562 C 73.113281 134.65625 79.816406 114.804688 91.066406 97.964844 " fill-opacity="1" fill-rule="nonzero"/><path fill="#000000" d="M 162.734375 252.886719 C 162.734375 252.886719 162.542969 253.484375 162.285156 254.472656 C 162.027344 255.460938 161.703125 256.839844 161.445312 258.40625 C 160.925781 261.539062 160.679688 265.414062 161.914062 268.4375 C 162.527344 269.96875 163.46875 271.054688 164.515625 271.886719 C 165.039062 272.300781 165.59375 272.644531 166.148438 272.933594 C 166.425781 273.074219 166.703125 273.207031 166.980469 273.316406 C 167.257812 273.421875 167.53125 273.511719 167.800781 273.589844 C 168.878906 273.90625 169.867188 274.042969 170.582031 274.101562 C 170.941406 274.128906 171.230469 274.136719 171.429688 274.136719 C 171.632812 274.140625 171.742188 274.132812 171.742188 274.132812 C 171.742188 274.132812 172.960938 272.960938 173.734375 271.074219 C 174.121094 270.132812 174.398438 269.011719 174.394531 267.777344 C 174.390625 266.539062 174.101562 265.183594 173.390625 263.777344 C 173.03125 263.085938 172.59375 262.359375 172.097656 261.679688 C 171.597656 261 171.046875 260.339844 170.46875 259.714844 C 170.175781 259.402344 169.882812 259.097656 169.582031 258.800781 L 169.355469 258.582031 L 169.132812 258.351562 C 168.980469 258.203125 168.832031 258.054688 168.683594 257.90625 C 168.082031 257.316406 167.484375 256.769531 166.910156 256.273438 C 165.753906 255.304688 164.722656 254.40625 163.964844 253.816406 C 163.210938 253.21875 162.734375 252.886719 162.734375 252.886719 " fill-opacity="1" fill-rule="nonzero"/><path fill="#000000" d="M 145.835938 247.625 C 145.835938 247.625 145.546875 248.15625 145.121094 249.046875 C 144.699219 249.941406 144.136719 251.191406 143.609375 252.636719 C 142.550781 255.519531 141.59375 259.207031 142.242188 262.257812 C 142.558594 263.789062 143.238281 265.039062 144.074219 266.039062 C 144.929688 266.996094 145.9375 267.714844 146.894531 268.238281 C 147.375 268.496094 147.835938 268.722656 148.273438 268.878906 C 148.707031 269.035156 149.105469 269.152344 149.441406 269.238281 C 150.117188 269.410156 150.546875 269.464844 150.546875 269.464844 C 150.546875 269.464844 151.914062 268.605469 152.992188 266.972656 C 153.535156 266.15625 154.007812 265.148438 154.234375 263.972656 C 154.460938 262.792969 154.445312 261.445312 154.03125 259.953125 C 153.828125 259.210938 153.53125 258.464844 153.179688 257.738281 C 152.828125 257.007812 152.414062 256.300781 151.984375 255.570312 C 151.554688 254.851562 151.089844 254.160156 150.617188 253.503906 C 150.382812 253.175781 150.144531 252.855469 149.90625 252.550781 C 149.789062 252.398438 149.671875 252.246094 149.554688 252.097656 C 149.4375 251.941406 149.324219 251.789062 149.210938 251.640625 C 148.304688 250.445312 147.457031 249.453125 146.835938 248.761719 C 146.675781 248.59375 146.539062 248.429688 146.417969 248.285156 C 146.296875 248.144531 146.191406 248.023438 146.105469 247.925781 C 145.929688 247.730469 145.835938 247.625 145.835938 247.625 " fill-opacity="1" fill-rule="nonzero"/><path fill="#000000" d="M 130.070312 239.21875 C 130.070312 239.21875 129.699219 239.671875 129.136719 240.441406 C 128.574219 241.210938 127.820312 242.300781 127.058594 243.570312 C 125.535156 246.117188 123.996094 249.410156 124.027344 252.46875 C 124.03125 252.851562 124.058594 253.226562 124.113281 253.578125 C 124.167969 253.925781 124.242188 254.261719 124.339844 254.582031 C 124.53125 255.226562 124.792969 255.820312 125.105469 256.367188 C 125.734375 257.445312 126.53125 258.355469 127.367188 258.992188 C 128.191406 259.648438 129.003906 260.113281 129.605469 260.414062 C 130.203125 260.714844 130.597656 260.847656 130.597656 260.847656 C 130.597656 260.847656 130.6875 260.816406 130.847656 260.738281 C 131.003906 260.660156 131.230469 260.546875 131.496094 260.390625 C 132.03125 260.074219 132.730469 259.585938 133.398438 258.910156 C 134.742188 257.558594 135.925781 255.417969 135.664062 252.46875 C 135.644531 252.285156 135.625 252.101562 135.597656 251.917969 C 135.574219 251.726562 135.546875 251.535156 135.511719 251.34375 C 135.445312 250.960938 135.363281 250.574219 135.265625 250.191406 C 135.066406 249.421875 134.8125 248.65625 134.523438 247.90625 C 133.925781 246.429688 133.257812 244.921875 132.585938 243.648438 C 132.257812 243.007812 131.921875 242.429688 131.625 241.890625 C 131.335938 241.34375 131.066406 240.863281 130.835938 240.46875 C 130.375 239.679688 130.070312 239.21875 130.070312 239.21875 " fill-opacity="1" fill-rule="nonzero"/><path fill="#000000" d="M 116.042969 227.929688 C 116.042969 227.929688 115.609375 228.292969 114.9375 228.917969 C 114.265625 229.550781 113.355469 230.445312 112.402344 231.515625 C 111.453125 232.589844 110.460938 233.839844 109.636719 235.1875 C 108.828125 236.523438 108.195312 237.953125 107.949219 239.398438 C 107.703125 240.835938 107.859375 242.15625 108.242188 243.3125 C 108.652344 244.441406 109.28125 245.410156 109.929688 246.195312 C 110.257812 246.589844 110.585938 246.933594 110.898438 247.234375 C 111.21875 247.527344 111.527344 247.761719 111.789062 247.953125 C 112.3125 248.339844 112.664062 248.535156 112.664062 248.535156 C 112.664062 248.535156 114.152344 248.265625 115.660156 247.234375 C 117.171875 246.207031 118.691406 244.402344 118.996094 241.53125 C 119.074219 240.816406 119.074219 240.070312 119.015625 239.3125 C 118.988281 238.933594 118.945312 238.554688 118.894531 238.175781 C 118.847656 237.785156 118.789062 237.394531 118.726562 237.003906 C 118.59375 236.230469 118.425781 235.464844 118.238281 234.730469 C 118.140625 234.359375 118.042969 234 117.941406 233.648438 C 117.886719 233.476562 117.835938 233.300781 117.785156 233.132812 C 117.738281 232.957031 117.6875 232.78125 117.640625 232.613281 C 117.257812 231.253906 116.851562 230.089844 116.539062 229.265625 C 116.460938 229.0625 116.390625 228.875 116.328125 228.710938 C 116.269531 228.546875 116.21875 228.402344 116.175781 228.285156 C 116.089844 228.054688 116.042969 227.929688 116.042969 227.929688 " fill-opacity="1" fill-rule="nonzero"/><path fill="#000000" d="M 104.304688 214.117188 C 104.304688 214.117188 103.832031 214.382812 103.082031 214.855469 C 102.332031 215.328125 101.308594 216.011719 100.214844 216.851562 C 98.03125 218.535156 95.578125 220.859375 94.554688 223.523438 C 94.492188 223.691406 94.433594 223.855469 94.382812 224.019531 C 94.335938 224.183594 94.292969 224.34375 94.257812 224.503906 C 94.1875 224.824219 94.140625 225.140625 94.109375 225.453125 C 94.054688 226.078125 94.078125 226.683594 94.160156 227.261719 C 94.242188 227.839844 94.386719 228.390625 94.5625 228.90625 C 94.652344 229.164062 94.746094 229.414062 94.855469 229.648438 C 94.96875 229.882812 95.089844 230.105469 95.210938 230.316406 C 95.699219 231.167969 96.238281 231.851562 96.652344 232.320312 C 97.070312 232.785156 97.363281 233.039062 97.363281 233.039062 C 97.363281 233.039062 97.722656 233.046875 98.285156 232.96875 C 98.855469 232.882812 99.628906 232.707031 100.441406 232.355469 C 101.257812 232.003906 102.109375 231.476562 102.851562 230.703125 C 103.601562 229.929688 104.226562 228.914062 104.632812 227.589844 C 105.050781 226.25 105.207031 224.734375 105.214844 223.230469 C 105.203125 221.746094 105.140625 220.195312 104.992188 218.855469 C 104.917969 218.183594 104.835938 217.554688 104.746094 216.992188 C 104.675781 216.417969 104.609375 215.902344 104.542969 215.476562 C 104.414062 214.625 104.304688 214.117188 104.304688 214.117188 " fill-opacity="1" fill-rule="nonzero"/><path fill="#000000" d="M 95.296875 198.246094 C 95.296875 198.246094 94.796875 198.410156 94.003906 198.722656 C 93.207031 199.03125 92.117188 199.488281 90.9375 200.085938 C 88.570312 201.28125 85.839844 203.027344 84.417969 205.351562 C 84.0625 205.929688 83.804688 206.519531 83.625 207.105469 C 83.449219 207.691406 83.34375 208.273438 83.332031 208.828125 C 83.292969 209.945312 83.496094 210.996094 83.78125 211.902344 C 83.925781 212.351562 84.089844 212.765625 84.253906 213.132812 C 84.425781 213.496094 84.609375 213.804688 84.769531 214.0625 C 85.085938 214.578125 85.324219 214.867188 85.324219 214.867188 C 85.324219 214.867188 86.695312 215.15625 88.351562 214.796875 C 90.011719 214.445312 91.945312 213.433594 93.199219 211.0625 C 93.511719 210.472656 93.769531 209.832031 93.984375 209.15625 C 94.089844 208.820312 94.183594 208.476562 94.269531 208.128906 C 94.363281 207.777344 94.449219 207.417969 94.527344 207.058594 C 94.835938 205.621094 95 204.171875 95.089844 202.875 C 95.226562 201.558594 95.28125 200.402344 95.296875 199.574219 C 95.3125 198.746094 95.296875 198.246094 95.296875 198.246094 " fill-opacity="1" fill-rule="nonzero"/><path fill="#000000" d="M 89.417969 180.789062 C 89.417969 180.789062 88.921875 180.855469 88.117188 181.003906 C 87.3125 181.15625 86.199219 181.390625 84.972656 181.746094 C 82.523438 182.449219 79.585938 183.617188 77.859375 185.546875 C 76.125 187.476562 75.800781 189.828125 76.078125 191.617188 C 76.195312 192.519531 76.417969 193.296875 76.605469 193.84375 C 76.796875 194.390625 76.957031 194.710938 76.957031 194.710938 C 76.957031 194.710938 77.269531 194.839844 77.789062 194.96875 C 78.308594 195.09375 79.03125 195.214844 79.847656 195.199219 C 81.484375 195.175781 83.5 194.582031 85.089844 192.582031 C 85.1875 192.460938 85.285156 192.332031 85.378906 192.199219 C 85.476562 192.066406 85.574219 191.929688 85.667969 191.789062 C 85.855469 191.511719 86.03125 191.21875 86.199219 190.917969 C 86.535156 190.316406 86.835938 189.675781 87.101562 189.027344 C 87.371094 188.378906 87.601562 187.714844 87.804688 187.066406 C 87.902344 186.742188 88.019531 186.417969 88.117188 186.097656 C 88.21875 185.777344 88.3125 185.464844 88.402344 185.15625 C 88.753906 183.933594 88.996094 182.847656 89.148438 182.0625 C 89.222656 181.671875 89.308594 181.351562 89.351562 181.132812 C 89.394531 180.910156 89.417969 180.789062 89.417969 180.789062 " fill-opacity="1" fill-rule="nonzero"/><path fill="#000000" d="M 86.828125 162.390625 C 86.828125 162.390625 86.34375 162.359375 85.558594 162.359375 C 84.773438 162.359375 83.683594 162.382812 82.464844 162.496094 C 80.023438 162.722656 77.101562 163.304688 75.089844 164.816406 C 74.589844 165.195312 74.167969 165.613281 73.816406 166.054688 C 73.476562 166.496094 73.210938 166.960938 72.996094 167.433594 C 72.785156 167.90625 72.628906 168.386719 72.515625 168.855469 C 72.460938 169.09375 72.417969 169.324219 72.382812 169.554688 C 72.351562 169.78125 72.332031 170.007812 72.320312 170.226562 C 72.273438 171.09375 72.34375 171.867188 72.425781 172.414062 C 72.503906 172.964844 72.613281 173.296875 72.613281 173.296875 C 72.613281 173.296875 73.691406 174.019531 75.234375 174.289062 C 76.777344 174.566406 78.78125 174.375 80.652344 172.773438 C 80.886719 172.574219 81.113281 172.359375 81.332031 172.128906 C 81.558594 171.898438 81.777344 171.652344 81.988281 171.398438 C 82.414062 170.890625 82.808594 170.34375 83.171875 169.773438 C 83.355469 169.492188 83.53125 169.203125 83.699219 168.914062 C 83.867188 168.625 84.046875 168.332031 84.207031 168.042969 C 84.53125 167.464844 84.828125 166.890625 85.089844 166.34375 C 85.351562 165.792969 85.597656 165.273438 85.820312 164.800781 C 86.035156 164.328125 86.21875 163.902344 86.367188 163.546875 C 86.515625 163.1875 86.628906 162.898438 86.703125 162.699219 C 86.78125 162.5 86.828125 162.390625 86.828125 162.390625 " fill-opacity="1" fill-rule="nonzero"/><path fill="#000000" d="M 87.753906 143.742188 C 87.753906 143.742188 85.964844 143.28125 83.636719 143.054688 C 82.46875 142.941406 81.171875 142.886719 79.886719 142.996094 C 78.609375 143.105469 77.332031 143.371094 76.265625 143.90625 C 75.195312 144.4375 74.40625 145.175781 73.820312 145.988281 C 73.246094 146.796875 72.90625 147.679688 72.6875 148.488281 C 72.582031 148.894531 72.496094 149.28125 72.457031 149.632812 C 72.414062 149.984375 72.394531 150.300781 72.386719 150.570312 C 72.371094 151.101562 72.40625 151.433594 72.40625 151.433594 C 72.40625 151.433594 73.277344 152.308594 74.667969 152.84375 C 75.367188 153.113281 76.199219 153.300781 77.109375 153.269531 C 78.015625 153.242188 79.015625 152.996094 80.050781 152.417969 C 80.570312 152.128906 81.074219 151.769531 81.558594 151.367188 C 82.046875 150.964844 82.5 150.519531 82.960938 150.050781 C 83.417969 149.585938 83.851562 149.097656 84.253906 148.609375 C 84.457031 148.363281 84.652344 148.117188 84.835938 147.875 C 85.027344 147.632812 85.214844 147.394531 85.394531 147.164062 C 85.753906 146.695312 86.074219 146.246094 86.359375 145.839844 C 86.636719 145.429688 86.886719 145.058594 87.097656 144.75 C 87.519531 144.128906 87.753906 143.742188 87.753906 143.742188 " fill-opacity="1" fill-rule="nonzero"/><path fill="#000000" d="M 92.195312 125.460938 C 92.195312 125.460938 90.601562 124.707031 88.453125 124.074219 C 86.300781 123.441406 83.617188 122.949219 81.398438 123.554688 C 80.84375 123.707031 80.34375 123.917969 79.898438 124.175781 C 79.445312 124.433594 79.070312 124.738281 78.726562 125.066406 C 78.050781 125.730469 77.539062 126.484375 77.195312 127.207031 C 76.519531 128.65625 76.390625 129.914062 76.390625 129.914062 C 76.390625 129.914062 76.550781 130.160156 76.871094 130.503906 C 77.1875 130.84375 77.660156 131.28125 78.265625 131.664062 C 79.480469 132.433594 81.242188 132.96875 83.378906 132.25 C 84.457031 131.894531 85.542969 131.277344 86.550781 130.558594 C 87.050781 130.195312 87.554688 129.816406 88.027344 129.429688 C 88.503906 129.042969 88.949219 128.652344 89.363281 128.273438 C 89.769531 127.890625 90.167969 127.53125 90.511719 127.195312 C 90.859375 126.863281 91.160156 126.558594 91.410156 126.300781 C 91.65625 126.042969 91.851562 125.832031 91.984375 125.6875 C 92.121094 125.539062 92.195312 125.460938 92.195312 125.460938 " fill-opacity="1" fill-rule="nonzero"/><path fill="#000000" d="M 100.066406 108.203125 C 100.066406 108.203125 98.703125 107.210938 96.808594 106.238281 C 94.910156 105.269531 92.472656 104.324219 90.273438 104.492188 C 89.179688 104.574219 88.273438 104.945312 87.507812 105.433594 C 87.125 105.679688 86.785156 105.957031 86.476562 106.25 C 86.179688 106.546875 85.921875 106.855469 85.695312 107.164062 C 85.242188 107.777344 84.921875 108.375 84.71875 108.816406 C 84.617188 109.039062 84.554688 109.222656 84.507812 109.351562 C 84.464844 109.480469 84.445312 109.554688 84.445312 109.554688 C 84.445312 109.554688 84.886719 110.597656 85.878906 111.535156 C 86.871094 112.472656 88.421875 113.296875 90.558594 113.015625 C 91.097656 112.949219 91.632812 112.808594 92.191406 112.636719 C 92.746094 112.460938 93.300781 112.246094 93.839844 112 C 94.382812 111.753906 94.910156 111.480469 95.421875 111.195312 C 95.941406 110.921875 96.433594 110.632812 96.894531 110.351562 C 97.355469 110.070312 97.78125 109.792969 98.15625 109.535156 C 98.542969 109.285156 98.886719 109.054688 99.167969 108.855469 C 99.734375 108.460938 100.066406 108.203125 100.066406 108.203125 " fill-opacity="1" fill-rule="nonzero"/><g clip-path="url(#730e92261e)"><path fill="#000000" d="M 152.746094 292.535156 C 152.746094 292.535156 152.84375 291.917969 153.082031 290.921875 C 153.324219 289.929688 153.703125 288.5625 154.253906 287.066406 C 155.351562 284.070312 157.132812 280.558594 159.691406 278.429688 C 160.964844 277.386719 162.335938 276.703125 163.664062 276.332031 C 164.328125 276.140625 164.984375 276.027344 165.617188 275.96875 C 165.933594 275.933594 166.242188 275.921875 166.546875 275.910156 C 166.851562 275.890625 167.148438 275.886719 167.433594 275.886719 C 168.585938 275.894531 169.585938 276.050781 170.304688 276.203125 C 170.660156 276.277344 170.949219 276.355469 171.144531 276.410156 C 171.339844 276.472656 171.449219 276.503906 171.449219 276.503906 C 171.449219 276.503906 172.375 277.894531 172.777344 279.898438 C 172.980469 280.898438 173.046875 282.054688 172.765625 283.261719 C 172.484375 284.472656 171.851562 285.734375 170.628906 286.941406 C 170.011719 287.558594 169.285156 288.078125 168.46875 288.574219 C 167.652344 289.066406 166.75 289.511719 165.800781 289.914062 C 165.328125 290.117188 164.839844 290.304688 164.347656 290.484375 L 163.976562 290.617188 L 163.605469 290.734375 C 163.359375 290.808594 163.109375 290.882812 162.859375 290.953125 C 161.863281 291.234375 160.859375 291.476562 159.890625 291.679688 C 157.945312 292.117188 156.167969 292.28125 154.863281 292.398438 C 153.5625 292.507812 152.746094 292.535156 152.746094 292.535156 " fill-opacity="1" fill-rule="nonzero"/></g><path fill="#000000" d="M 129.207031 283.375 C 129.207031 283.375 129.414062 282.804688 129.820312 281.90625 C 130.226562 281.003906 130.835938 279.773438 131.628906 278.457031 C 133.214844 275.8125 135.515625 272.84375 138.351562 271.238281 C 139.765625 270.445312 141.171875 270.089844 142.492188 270 C 143.828125 269.867188 145.078125 270.003906 146.160156 270.25 C 146.703125 270.367188 147.199219 270.527344 147.648438 270.667969 C 148.097656 270.804688 148.492188 270.949219 148.820312 271.078125 C 149.476562 271.34375 149.859375 271.558594 149.859375 271.558594 C 149.859375 271.558594 150.472656 273.070312 150.476562 275.058594 C 150.476562 276.054688 150.324219 277.167969 149.832031 278.257812 C 149.339844 279.347656 148.511719 280.421875 147.132812 281.320312 C 146.445312 281.769531 145.652344 282.15625 144.785156 282.484375 C 143.917969 282.8125 142.976562 283.09375 142.015625 283.269531 C 141.050781 283.464844 140.046875 283.601562 139.050781 283.703125 C 138.546875 283.753906 138.050781 283.792969 137.554688 283.824219 C 137.308594 283.839844 137.0625 283.855469 136.820312 283.863281 C 136.578125 283.867188 136.339844 283.867188 136.101562 283.871094 C 134.210938 283.871094 132.476562 283.761719 131.21875 283.648438 C 130.90625 283.625 130.625 283.585938 130.378906 283.554688 C 130.132812 283.519531 129.917969 283.488281 129.746094 283.460938 C 129.398438 283.40625 129.207031 283.375 129.207031 283.375 " fill-opacity="1" fill-rule="nonzero"/><path fill="#000000" d="M 107.925781 270.058594 C 107.925781 270.058594 108.226562 269.554688 108.773438 268.773438 C 109.320312 267.992188 110.121094 266.9375 111.109375 265.824219 C 113.089844 263.601562 115.832031 261.15625 118.777344 260.195312 C 119.144531 260.074219 119.503906 259.984375 119.863281 259.90625 C 120.226562 259.828125 120.582031 259.769531 120.933594 259.734375 C 121.632812 259.660156 122.304688 259.671875 122.945312 259.738281 C 124.226562 259.871094 125.359375 260.277344 126.363281 260.667969 C 127.355469 261.078125 128.164062 261.5625 128.730469 261.945312 C 129.296875 262.328125 129.617188 262.609375 129.617188 262.609375 C 129.617188 262.609375 129.636719 262.707031 129.660156 262.878906 C 129.683594 263.050781 129.710938 263.300781 129.726562 263.609375 C 129.757812 264.226562 129.75 265.078125 129.570312 266.011719 C 129.203125 267.882812 128.1875 270.113281 125.234375 271.355469 C 125.050781 271.429688 124.859375 271.503906 124.664062 271.570312 C 124.472656 271.632812 124.273438 271.691406 124.070312 271.746094 C 123.667969 271.851562 123.242188 271.941406 122.808594 272.011719 C 121.933594 272.15625 121.003906 272.230469 120.046875 272.25 C 118.125 272.3125 116.164062 272.054688 114.359375 271.746094 C 113.457031 271.585938 112.59375 271.421875 111.820312 271.230469 C 111.058594 271.03125 110.367188 270.835938 109.789062 270.660156 C 108.636719 270.3125 107.925781 270.058594 107.925781 270.058594 " fill-opacity="1" fill-rule="nonzero"/><path fill="#000000" d="M 89.597656 253.09375 C 89.597656 253.09375 89.972656 252.667969 90.632812 252.027344 C 91.292969 251.386719 92.238281 250.53125 93.375 249.65625 C 94.507812 248.78125 95.832031 247.890625 97.238281 247.175781 C 98.65625 246.449219 100.167969 245.886719 101.660156 245.683594 C 103.152344 245.480469 104.488281 245.660156 105.664062 246.03125 C 106.863281 246.378906 107.898438 246.925781 108.75 247.511719 C 109.175781 247.804688 109.554688 248.105469 109.886719 248.390625 C 110.222656 248.671875 110.519531 248.929688 110.757812 249.15625 C 111.230469 249.613281 111.488281 249.929688 111.488281 249.929688 C 111.488281 249.929688 111.492188 251.449219 110.800781 253.164062 C 110.101562 254.875 108.730469 256.800781 105.730469 257.410156 C 104.980469 257.5625 104.164062 257.625 103.300781 257.609375 C 102.871094 257.605469 102.429688 257.578125 101.984375 257.535156 C 101.546875 257.484375 101.101562 257.417969 100.652344 257.335938 C 99.757812 257.171875 98.847656 256.953125 97.953125 256.699219 C 97.503906 256.574219 97.0625 256.4375 96.625 256.296875 C 96.410156 256.226562 96.191406 256.152344 95.980469 256.082031 C 95.769531 256 95.566406 255.921875 95.363281 255.84375 C 93.734375 255.203125 92.285156 254.523438 91.242188 254.003906 C 90.984375 253.871094 90.746094 253.753906 90.542969 253.644531 C 90.34375 253.53125 90.171875 253.429688 90.03125 253.351562 C 89.75 253.183594 89.597656 253.09375 89.597656 253.09375 " fill-opacity="1" fill-rule="nonzero"/><path fill="#000000" d="M 74.835938 233.078125 C 74.835938 233.078125 75.269531 232.746094 76.007812 232.257812 C 76.75 231.773438 77.800781 231.132812 79.035156 230.507812 C 81.5 229.261719 84.703125 228.085938 87.566406 228.265625 C 87.746094 228.273438 87.921875 228.292969 88.09375 228.3125 C 88.269531 228.328125 88.445312 228.355469 88.613281 228.382812 C 88.953125 228.4375 89.277344 228.511719 89.59375 228.597656 C 90.21875 228.777344 90.796875 229.015625 91.324219 229.292969 C 91.851562 229.574219 92.328125 229.894531 92.761719 230.234375 C 92.980469 230.402344 93.179688 230.582031 93.378906 230.753906 C 93.578125 230.925781 93.769531 231.101562 93.949219 231.273438 C 94.664062 231.96875 95.195312 232.664062 95.554688 233.191406 C 95.910156 233.714844 96.089844 234.070312 96.089844 234.070312 C 96.089844 234.070312 96.015625 234.429688 95.820312 234.980469 C 95.636719 235.519531 95.332031 236.25 94.851562 236.992188 C 94.371094 237.734375 93.714844 238.492188 92.808594 239.074219 C 91.902344 239.65625 90.742188 240.070312 89.261719 240.085938 C 87.800781 240.089844 86.15625 239.691406 84.5 239.078125 C 82.820312 238.476562 81.234375 237.582031 79.785156 236.707031 C 79.066406 236.265625 78.386719 235.824219 77.777344 235.40625 C 77.1875 234.980469 76.667969 234.574219 76.230469 234.230469 C 75.359375 233.539062 74.835938 233.078125 74.835938 233.078125 " fill-opacity="1" fill-rule="nonzero"/><path fill="#000000" d="M 64.128906 210.761719 C 64.128906 210.761719 64.597656 210.523438 65.382812 210.199219 C 66.171875 209.875 67.28125 209.457031 68.5625 209.09375 C 71.121094 208.359375 74.367188 207.824219 77.066406 208.503906 C 77.742188 208.671875 78.351562 208.910156 78.898438 209.199219 C 79.449219 209.484375 79.929688 209.824219 80.394531 210.175781 C 81.304688 210.886719 82 211.71875 82.527344 212.515625 C 82.792969 212.914062 83.011719 213.304688 83.199219 213.667969 C 83.390625 214.023438 83.554688 214.347656 83.679688 214.625 C 83.929688 215.179688 84.039062 215.542969 84.039062 215.542969 C 84.039062 215.542969 83.515625 216.847656 82.324219 218.078125 C 81.128906 219.300781 79.277344 220.46875 76.492188 219.957031 C 75.792969 219.828125 75.070312 219.597656 74.335938 219.292969 C 73.96875 219.136719 73.601562 218.964844 73.234375 218.777344 C 72.875 218.582031 72.515625 218.371094 72.160156 218.148438 C 70.738281 217.25 69.351562 216.148438 68.132812 215.066406 C 66.964844 213.960938 65.964844 212.882812 65.253906 212.082031 C 64.546875 211.28125 64.128906 210.761719 64.128906 210.761719 " fill-opacity="1" fill-rule="nonzero"/><path fill="#000000" d="M 57.890625 186.96875 C 57.890625 186.96875 58.375 186.832031 59.175781 186.664062 C 59.980469 186.5 61.097656 186.308594 62.367188 186.191406 C 64.914062 185.960938 68.023438 186.046875 70.480469 187.164062 C 72.933594 188.28125 74.140625 190.253906 74.910156 191.933594 C 75.273438 192.777344 75.480469 193.5625 75.601562 194.136719 C 75.71875 194.710938 75.75 195.074219 75.75 195.074219 C 75.75 195.074219 75.027344 196.199219 73.683594 197.136719 C 72.339844 198.0625 70.378906 198.816406 67.820312 197.835938 C 67.660156 197.773438 67.5 197.707031 67.339844 197.632812 C 67.183594 197.554688 67.027344 197.476562 66.871094 197.390625 C 66.558594 197.214844 66.246094 197.023438 65.9375 196.808594 C 65.316406 196.382812 64.703125 195.882812 64.105469 195.335938 C 63.507812 194.789062 62.929688 194.195312 62.378906 193.582031 C 62.09375 193.28125 61.847656 192.964844 61.601562 192.652344 C 61.355469 192.339844 61.117188 192.023438 60.886719 191.714844 C 59.972656 190.472656 59.210938 189.289062 58.675781 188.414062 C 58.40625 187.976562 58.230469 187.613281 58.09375 187.363281 C 57.960938 187.109375 57.890625 186.96875 57.890625 186.96875 " fill-opacity="1" fill-rule="nonzero"/><g clip-path="url(#b7170f595a)"><path fill="#000000" d="M 56.152344 162.59375 C 56.152344 162.59375 56.632812 162.550781 57.417969 162.535156 C 58.203125 162.523438 59.292969 162.542969 60.511719 162.660156 C 62.9375 162.894531 65.910156 163.527344 67.988281 165.015625 C 68.507812 165.390625 68.945312 165.796875 69.320312 166.230469 C 69.703125 166.660156 70.023438 167.113281 70.285156 167.570312 C 70.546875 168.03125 70.753906 168.5 70.914062 168.957031 C 70.996094 169.1875 71.066406 169.417969 71.125 169.640625 C 71.191406 169.863281 71.25 170.085938 71.296875 170.300781 C 71.492188 171.160156 71.550781 171.933594 71.558594 172.496094 C 71.566406 173.058594 71.542969 173.40625 71.542969 173.40625 C 71.542969 173.40625 70.652344 174.335938 69.210938 174.96875 C 67.773438 175.597656 65.789062 175.949219 63.574219 174.5625 C 61.371094 173.179688 59.425781 170.242188 58.128906 167.582031 C 57.964844 167.25 57.804688 166.921875 57.664062 166.605469 C 57.523438 166.289062 57.394531 165.976562 57.273438 165.683594 C 57.03125 165.089844 56.824219 164.546875 56.65625 164.089844 C 56.488281 163.632812 56.359375 163.257812 56.273438 163 C 56.191406 162.738281 56.152344 162.59375 56.152344 162.59375 " fill-opacity="1" fill-rule="nonzero"/></g><path fill="#000000" d="M 59.015625 138.414062 C 59.015625 138.414062 60.855469 138.601562 63.101562 139.265625 C 64.226562 139.59375 65.453125 140.042969 66.609375 140.628906 C 67.765625 141.210938 68.832031 141.933594 69.691406 142.824219 C 70.546875 143.714844 71.074219 144.683594 71.386719 145.640625 C 71.710938 146.597656 71.84375 147.550781 71.851562 148.390625 C 71.863281 148.8125 71.832031 149.207031 71.808594 149.5625 C 71.785156 149.917969 71.742188 150.238281 71.699219 150.5 C 71.617188 151.03125 71.523438 151.351562 71.523438 151.351562 C 71.523438 151.351562 70.5 152.058594 69.027344 152.390625 C 68.292969 152.554688 67.449219 152.625 66.550781 152.445312 C 65.652344 152.261719 64.71875 151.828125 63.816406 150.976562 C 63.367188 150.546875 62.945312 150.035156 62.550781 149.464844 C 62.164062 148.890625 61.792969 148.257812 61.480469 147.59375 C 61.167969 146.929688 60.882812 146.230469 60.625 145.527344 C 60.496094 145.175781 60.378906 144.824219 60.265625 144.476562 C 60.152344 144.125 60.058594 143.78125 59.96875 143.441406 C 59.789062 142.761719 59.632812 142.105469 59.507812 141.507812 C 59.378906 140.90625 59.273438 140.363281 59.207031 139.90625 C 59.070312 138.988281 59.015625 138.414062 59.015625 138.414062 " fill-opacity="1" fill-rule="nonzero"/><path fill="#000000" d="M 66.324219 115.34375 C 66.324219 115.34375 68.015625 115.851562 70.003906 116.875 C 71.988281 117.894531 74.300781 119.433594 75.5625 121.402344 C 75.878906 121.894531 76.113281 122.394531 76.285156 122.886719 C 76.457031 123.378906 76.582031 123.871094 76.644531 124.347656 C 76.78125 125.308594 76.707031 126.210938 76.570312 127.007812 C 76.316406 128.597656 75.714844 129.71875 75.714844 129.71875 C 75.714844 129.71875 75.441406 129.835938 74.996094 129.960938 C 74.550781 130.085938 73.921875 130.21875 73.203125 130.234375 C 71.769531 130.269531 69.96875 129.878906 68.5625 127.945312 C 67.871094 126.980469 67.371094 125.722656 67 124.359375 C 66.808594 123.675781 66.675781 122.976562 66.570312 122.277344 C 66.460938 121.574219 66.382812 120.875 66.328125 120.207031 C 66.261719 119.535156 66.25 118.902344 66.242188 118.320312 C 66.234375 117.738281 66.238281 117.214844 66.25 116.773438 C 66.261719 116.332031 66.277344 115.972656 66.289062 115.726562 C 66.3125 115.480469 66.324219 115.34375 66.324219 115.34375 " fill-opacity="1" fill-rule="nonzero"/><path fill="#000000" d="M 77.761719 94.199219 C 77.761719 94.199219 79.253906 94.972656 80.9375 96.289062 C 82.625 97.601562 84.507812 99.449219 85.328125 101.507812 C 85.746094 102.542969 85.878906 103.546875 85.824219 104.464844 C 85.796875 104.921875 85.726562 105.359375 85.625 105.769531 C 85.535156 106.1875 85.414062 106.578125 85.28125 106.9375 C 85.011719 107.65625 84.6875 108.246094 84.425781 108.660156 C 84.296875 108.867188 84.191406 109.035156 84.113281 109.144531 C 84.035156 109.257812 83.988281 109.316406 83.988281 109.316406 C 83.988281 109.316406 82.894531 109.566406 81.542969 109.339844 C 80.191406 109.105469 78.578125 108.40625 77.621094 106.351562 C 77.382812 105.839844 77.191406 105.257812 77.0625 104.648438 C 76.929688 104.039062 76.847656 103.386719 76.800781 102.71875 C 76.753906 102.054688 76.738281 101.367188 76.757812 100.691406 C 76.785156 100.023438 76.839844 99.359375 76.910156 98.730469 C 76.980469 98.097656 77.0625 97.496094 77.152344 96.949219 C 77.246094 96.40625 77.351562 95.921875 77.441406 95.511719 C 77.621094 94.699219 77.761719 94.199219 77.761719 94.199219 " fill-opacity="1" fill-rule="nonzero"/><g fill="#000000" fill-opacity="1"><g transform="translate(177.045834, 162.374989)"><g><path d="M 3.953125 0 L 1.734375 0 L 2.75 -3.859375 L 0.8125 -3.859375 L 0.8125 -5.984375 L 3.296875 -5.984375 L 3.890625 -8.28125 L 1.46875 -8.28125 L 1.46875 -10.40625 L 4.453125 -10.40625 L 5.40625 -14.09375 L 7.53125 -14.09375 L 6.609375 -10.40625 L 8.875 -10.40625 L 9.84375 -14.09375 L 11.953125 -14.09375 L 11.03125 -10.40625 L 12.859375 -10.40625 L 12.859375 -8.28125 L 10.46875 -8.28125 L 9.890625 -5.984375 L 12.203125 -5.984375 L 12.203125 -3.859375 L 9.359375 -3.859375 L 8.375 0 L 6.171875 0 L 7.171875 -3.859375 L 4.9375 -3.859375 Z M 6.03125 -8.28125 L 5.46875 -5.984375 L 7.71875 -5.984375 L 8.328125 -8.28125 Z M 6.03125 -8.28125 "/></g></g></g><g fill="#000000" fill-opacity="1"><g transform="translate(192.121006, 162.374989)"><g><path d="M 4.9375 -14.09375 L 4.9375 0 L 2.1875 0 L 2.1875 -11.625 L 0.421875 -11.625 L 0.421875 -14.09375 Z M 4.9375 -14.09375 "/></g></g></g><g fill="#000000" fill-opacity="1"><g transform="translate(116.272401, 191.624987)"><g><path d="M 4.28125 -14.09375 L 4.28125 0 L 1.34375 0 L 1.34375 -14.09375 Z M 4.28125 -14.09375 "/></g></g></g><g fill="#000000" fill-opacity="1"><g transform="translate(123.422586, 191.624987)"><g><path d="M 11.375 -5.9375 L 11.375 -14.09375 L 14.3125 -14.09375 L 14.3125 0.25 L 4.28125 -8.09375 L 4.28125 0 L 1.34375 0 L 1.34375 -14.359375 Z M 11.375 -5.9375 "/></g></g></g><g fill="#000000" fill-opacity="1"><g transform="translate(140.597212, 191.624987)"><g/></g></g><g fill="#000000" fill-opacity="1"><g transform="translate(150.092737, 191.624987)"><g><path d="M 8.0625 0.25 C 7.050781 0.25 6.101562 0.0625 5.21875 -0.3125 C 4.332031 -0.695312 3.554688 -1.222656 2.890625 -1.890625 C 2.222656 -2.554688 1.695312 -3.332031 1.3125 -4.21875 C 0.9375 -5.101562 0.75 -6.050781 0.75 -7.0625 C 0.75 -8.070312 0.9375 -9.015625 1.3125 -9.890625 C 1.695312 -10.765625 2.222656 -11.535156 2.890625 -12.203125 C 3.554688 -12.867188 4.328125 -13.390625 5.203125 -13.765625 C 6.085938 -14.148438 7.035156 -14.34375 8.046875 -14.34375 C 9.054688 -14.34375 10 -14.148438 10.875 -13.765625 C 11.757812 -13.390625 12.535156 -12.867188 13.203125 -12.203125 C 13.867188 -11.535156 14.390625 -10.765625 14.765625 -9.890625 C 15.148438 -9.015625 15.34375 -8.070312 15.34375 -7.0625 C 15.34375 -6.050781 15.148438 -5.101562 14.765625 -4.21875 C 14.390625 -3.332031 13.867188 -2.554688 13.203125 -1.890625 C 12.535156 -1.222656 11.765625 -0.695312 10.890625 -0.3125 C 10.015625 0.0625 9.070312 0.25 8.0625 0.25 Z M 8.046875 -11.546875 C 7.242188 -11.546875 6.519531 -11.34375 5.875 -10.9375 C 5.226562 -10.53125 4.710938 -9.988281 4.328125 -9.3125 C 3.953125 -8.644531 3.765625 -7.894531 3.765625 -7.0625 C 3.765625 -6.226562 3.953125 -5.46875 4.328125 -4.78125 C 4.710938 -4.101562 5.226562 -3.566406 5.875 -3.171875 C 6.519531 -2.773438 7.25 -2.578125 8.0625 -2.578125 C 8.851562 -2.578125 9.570312 -2.773438 10.21875 -3.171875 C 10.875 -3.566406 11.390625 -4.101562 11.765625 -4.78125 C 12.148438 -5.46875 12.34375 -6.226562 12.34375 -7.0625 C 12.34375 -7.894531 12.148438 -8.644531 11.765625 -9.3125 C 11.378906 -9.988281 10.859375 -10.53125 10.203125 -10.9375 C 9.554688 -11.34375 8.835938 -11.546875 8.046875 -11.546875 Z M 8.046875 -11.546875 "/></g></g></g><g fill="#000000" fill-opacity="1"><g transform="translate(167.721304, 191.624987)"><g><path d="M 11.375 -5.9375 L 11.375 -14.09375 L 14.3125 -14.09375 L 14.3125 0.25 L 4.28125 -8.09375 L 4.28125 0 L 1.34375 0 L 1.34375 -14.359375 Z M 11.375 -5.9375 "/></g></g></g><g fill="#000000" fill-opacity="1"><g transform="translate(184.895932, 191.624987)"><g><path d="M 10.078125 0 L 1.34375 0 L 1.34375 -14.09375 L 8.84375 -14.09375 L 8.84375 -11.453125 L 4.28125 -11.453125 L 4.28125 -8.8125 L 9.578125 -8.8125 L 9.578125 -6.1875 L 4.28125 -6.1875 L 4.28125 -2.65625 L 10.078125 -2.65625 Z M 10.078125 0 "/></g></g></g><g fill="#000000" fill-opacity="1"><g transform="translate(197.2664, 191.624987)"><g><path d="M 6.390625 -6.875 L 6.390625 -4.765625 L 0.890625 -4.765625 L 0.890625 -6.875 Z M 6.390625 -6.875 "/></g></g></g><g fill="#000000" fill-opacity="1"><g transform="translate(206.081028, 191.624987)"><g><path d="M 13.515625 -5.828125 L 17.515625 -14.09375 L 20.5625 -14.09375 L 13.390625 0.25 L 10.3125 -5.5625 L 7.421875 0.25 L -0.109375 -14.09375 L 3.25 -14.09375 L 7.53125 -5.828125 L 8.859375 -8.375 L 5.859375 -14.09375 L 9.234375 -14.09375 Z M 13.515625 -5.828125 "/></g></g></g><g fill="#000000" fill-opacity="1"><g transform="translate(228.059828, 191.624987)"><g><path d="M 11.578125 0 L 10.65625 -1.890625 L 3.828125 -1.890625 L 2.90625 0 L -0.109375 0 L 7.328125 -14.34375 L 14.78125 0 Z M 7.203125 -8.9375 L 5.09375 -4.546875 L 9.359375 -4.546875 Z M 7.203125 -8.9375 "/></g></g></g><g fill="#000000" fill-opacity="1"><g transform="translate(244.250928, 191.624987)"><g><path d="M 7.359375 -7.171875 L 11.484375 -14.09375 L 14.5625 -14.09375 L 8.78125 -4.546875 L 8.78125 0 L 5.859375 0 L 5.859375 -4.28125 L -0.109375 -14.09375 L 3.25 -14.09375 Z M 7.359375 -7.171875 "/></g></g></g><g fill="#000000" fill-opacity="1"><g transform="translate(140.741149, 220.874985)"><g><path d="M 4.28125 0 L 1.34375 0 L 1.34375 -14.09375 L 6.15625 -14.09375 C 7.019531 -14.09375 7.8125 -13.929688 8.53125 -13.609375 C 9.25 -13.285156 9.867188 -12.851562 10.390625 -12.3125 C 10.921875 -11.78125 11.328125 -11.175781 11.609375 -10.5 C 11.898438 -9.832031 12.046875 -9.140625 12.046875 -8.421875 C 12.046875 -7.222656 11.785156 -6.144531 11.265625 -5.1875 C 10.742188 -4.238281 10.023438 -3.492188 9.109375 -2.953125 C 8.191406 -2.410156 7.140625 -2.140625 5.953125 -2.140625 L 4.28125 -2.140625 Z M 4.28125 -4.8125 L 5.890625 -4.8125 C 6.566406 -4.8125 7.140625 -4.957031 7.609375 -5.25 C 8.085938 -5.550781 8.445312 -5.953125 8.6875 -6.453125 C 8.925781 -6.953125 9.046875 -7.507812 9.046875 -8.125 C 9.046875 -8.675781 8.925781 -9.203125 8.6875 -9.703125 C 8.457031 -10.210938 8.117188 -10.628906 7.671875 -10.953125 C 7.234375 -11.285156 6.695312 -11.453125 6.0625 -11.453125 L 4.28125 -11.453125 Z M 4.28125 -4.8125 "/></g></g></g><g fill="#000000" fill-opacity="1"><g transform="translate(154.889533, 220.874985)"><g><path d="M 5.75 -2.4375 L 4.28125 -2.4375 L 4.28125 0 L 1.34375 0 L 1.34375 -14.09375 L 6.25 -14.09375 C 7.082031 -14.09375 7.847656 -13.953125 8.546875 -13.671875 C 9.253906 -13.390625 9.875 -12.992188 10.40625 -12.484375 C 10.9375 -11.972656 11.347656 -11.378906 11.640625 -10.703125 C 11.941406 -10.035156 12.09375 -9.316406 12.09375 -8.546875 C 12.09375 -7.285156 11.804688 -6.203125 11.234375 -5.296875 C 10.671875 -4.390625 9.894531 -3.707031 8.90625 -3.25 L 11.953125 0 L 8.0625 0 Z M 4.28125 -5.09375 L 5.484375 -5.09375 C 6.648438 -5.09375 7.539062 -5.367188 8.15625 -5.921875 C 8.769531 -6.472656 9.078125 -7.273438 9.078125 -8.328125 C 9.078125 -8.910156 8.960938 -9.429688 8.734375 -9.890625 C 8.515625 -10.359375 8.179688 -10.734375 7.734375 -11.015625 C 7.285156 -11.304688 6.726562 -11.453125 6.0625 -11.453125 L 4.28125 -11.453125 Z M 4.28125 -5.09375 "/></g></g></g><g fill="#000000" fill-opacity="1"><g transform="translate(169.189231, 220.874985)"><g><path d="M 4.28125 -14.09375 L 4.28125 0 L 1.34375 0 L 1.34375 -14.09375 Z M 4.28125 -14.09375 "/></g></g></g><g fill="#000000" fill-opacity="1"><g transform="translate(176.339416, 220.874985)"><g><path d="M 12.296875 -6.21875 L 15.265625 -6.21875 C 15.171875 -5.3125 14.914062 -4.46875 14.5 -3.6875 C 14.082031 -2.90625 13.546875 -2.21875 12.890625 -1.625 C 12.234375 -1.039062 11.488281 -0.582031 10.65625 -0.25 C 9.820312 0.0820312 8.9375 0.25 8 0.25 C 6.988281 0.25 6.046875 0.0625 5.171875 -0.3125 C 4.296875 -0.695312 3.523438 -1.222656 2.859375 -1.890625 C 2.203125 -2.554688 1.6875 -3.328125 1.3125 -4.203125 C 0.9375 -5.085938 0.75 -6.03125 0.75 -7.03125 C 0.75 -8.039062 0.9375 -8.988281 1.3125 -9.875 C 1.6875 -10.757812 2.203125 -11.535156 2.859375 -12.203125 C 3.523438 -12.867188 4.296875 -13.390625 5.171875 -13.765625 C 6.046875 -14.148438 6.984375 -14.34375 7.984375 -14.34375 C 9.296875 -14.34375 10.503906 -14.03125 11.609375 -13.40625 C 12.710938 -12.78125 13.578125 -11.953125 14.203125 -10.921875 L 11.921875 -9.296875 C 11.410156 -10.046875 10.8125 -10.609375 10.125 -10.984375 C 9.4375 -11.359375 8.726562 -11.546875 8 -11.546875 C 7.21875 -11.546875 6.503906 -11.34375 5.859375 -10.9375 C 5.222656 -10.53125 4.710938 -9.984375 4.328125 -9.296875 C 3.953125 -8.617188 3.765625 -7.863281 3.765625 -7.03125 C 3.765625 -6.21875 3.953125 -5.46875 4.328125 -4.78125 C 4.710938 -4.101562 5.222656 -3.566406 5.859375 -3.171875 C 6.503906 -2.773438 7.21875 -2.578125 8 -2.578125 C 8.707031 -2.578125 9.359375 -2.734375 9.953125 -3.046875 C 10.554688 -3.359375 11.066406 -3.789062 11.484375 -4.34375 C 11.898438 -4.894531 12.171875 -5.519531 12.296875 -6.21875 Z M 12.296875 -6.21875 "/></g></g></g><g fill="#000000" fill-opacity="1"><g transform="translate(193.892325, 220.874985)"><g><path d="M 4.28125 -14.09375 L 4.28125 0 L 1.34375 0 L 1.34375 -14.09375 Z M 4.28125 -14.09375 "/></g></g></g><g fill="#000000" fill-opacity="1"><g transform="translate(201.042513, 220.874985)"><g><path d="M 11.375 -5.9375 L 11.375 -14.09375 L 14.3125 -14.09375 L 14.3125 0.25 L 4.28125 -8.09375 L 4.28125 0 L 1.34375 0 L 1.34375 -14.359375 Z M 11.375 -5.9375 "/></g></g></g><g fill="#000000" fill-opacity="1"><g transform="translate(218.217142, 220.874985)"><g><path d="M 15.3125 -7.703125 L 15.3125 -7.265625 C 15.3125 -6.234375 15.117188 -5.257812 14.734375 -4.34375 C 14.359375 -3.4375 13.835938 -2.632812 13.171875 -1.9375 C 12.503906 -1.25 11.726562 -0.710938 10.84375 -0.328125 C 9.957031 0.0546875 9.007812 0.25 8 0.25 C 6.988281 0.25 6.046875 0.0625 5.171875 -0.3125 C 4.296875 -0.695312 3.523438 -1.222656 2.859375 -1.890625 C 2.203125 -2.554688 1.6875 -3.328125 1.3125 -4.203125 C 0.9375 -5.085938 0.75 -6.03125 0.75 -7.03125 C 0.75 -8.039062 0.9375 -8.988281 1.3125 -9.875 C 1.6875 -10.757812 2.203125 -11.535156 2.859375 -12.203125 C 3.523438 -12.867188 4.296875 -13.390625 5.171875 -13.765625 C 6.046875 -14.148438 6.984375 -14.34375 7.984375 -14.34375 C 9.296875 -14.34375 10.503906 -14.03125 11.609375 -13.40625 C 12.710938 -12.78125 13.578125 -11.953125 14.203125 -10.921875 L 11.859375 -9.21875 C 11.492188 -9.90625 10.96875 -10.460938 10.28125 -10.890625 C 9.59375 -11.328125 8.832031 -11.546875 8 -11.546875 C 7.21875 -11.546875 6.503906 -11.34375 5.859375 -10.9375 C 5.222656 -10.53125 4.710938 -9.984375 4.328125 -9.296875 C 3.953125 -8.617188 3.765625 -7.863281 3.765625 -7.03125 C 3.765625 -6.21875 3.953125 -5.46875 4.328125 -4.78125 C 4.710938 -4.101562 5.222656 -3.566406 5.859375 -3.171875 C 6.503906 -2.773438 7.21875 -2.578125 8 -2.578125 C 8.863281 -2.578125 9.648438 -2.789062 10.359375 -3.21875 C 11.066406 -3.644531 11.582031 -4.269531 11.90625 -5.09375 L 8.078125 -5.09375 L 8.078125 -7.703125 Z M 15.3125 -7.703125 "/></g></g></g><g fill="#000000" fill-opacity="1"><g transform="translate(169.512031, 88.603236)"><g><path d="M 7.140625 -4.5 C 7.640625 -4.351562 8.035156 -4.097656 8.328125 -3.734375 C 8.617188 -3.367188 8.765625 -2.90625 8.765625 -2.34375 C 8.765625 -1.59375 8.476562 -1.015625 7.90625 -0.609375 C 7.34375 -0.203125 6.519531 0 5.4375 0 L 1.296875 0 L 1.296875 -8.671875 L 5.1875 -8.671875 C 6.175781 -8.671875 6.941406 -8.472656 7.484375 -8.078125 C 8.023438 -7.679688 8.296875 -7.132812 8.296875 -6.4375 C 8.296875 -5.976562 8.191406 -5.582031 7.984375 -5.25 C 7.773438 -4.925781 7.492188 -4.675781 7.140625 -4.5 Z M 2.546875 -7.671875 L 2.546875 -4.890625 L 5.078125 -4.890625 C 5.710938 -4.890625 6.203125 -5.003906 6.546875 -5.234375 C 6.890625 -5.472656 7.0625 -5.820312 7.0625 -6.28125 C 7.0625 -6.738281 6.890625 -7.082031 6.546875 -7.3125 C 6.203125 -7.550781 5.710938 -7.671875 5.078125 -7.671875 Z M 5.390625 -1 C 6.085938 -1 6.613281 -1.113281 6.96875 -1.34375 C 7.332031 -1.582031 7.515625 -1.945312 7.515625 -2.4375 C 7.515625 -3.40625 6.804688 -3.890625 5.390625 -3.890625 L 2.546875 -3.890625 L 2.546875 -1 Z M 5.390625 -1 "/></g></g></g><g fill="#000000" fill-opacity="1"><g transform="translate(178.885658, 88.603236)"><g><path d="M 7.59375 -1.078125 L 7.59375 0 L 1.296875 0 L 1.296875 -8.671875 L 7.421875 -8.671875 L 7.421875 -7.59375 L 2.546875 -7.59375 L 2.546875 -4.9375 L 6.890625 -4.9375 L 6.890625 -3.875 L 2.546875 -3.875 L 2.546875 -1.078125 Z M 7.59375 -1.078125 "/></g></g></g><g fill="#000000" fill-opacity="1"><g transform="translate(187.181997, 88.603236)"><g><path d="M 3.828125 0.09375 C 3.171875 0.09375 2.539062 -0.00390625 1.9375 -0.203125 C 1.332031 -0.410156 0.859375 -0.671875 0.515625 -0.984375 L 0.96875 -1.953125 C 1.300781 -1.660156 1.722656 -1.421875 2.234375 -1.234375 C 2.753906 -1.046875 3.285156 -0.953125 3.828125 -0.953125 C 4.546875 -0.953125 5.082031 -1.070312 5.4375 -1.3125 C 5.789062 -1.5625 5.96875 -1.890625 5.96875 -2.296875 C 5.96875 -2.585938 5.867188 -2.828125 5.671875 -3.015625 C 5.484375 -3.203125 5.242188 -3.34375 4.953125 -3.4375 C 4.671875 -3.539062 4.269531 -3.65625 3.75 -3.78125 C 3.101562 -3.9375 2.578125 -4.09375 2.171875 -4.25 C 1.773438 -4.40625 1.429688 -4.644531 1.140625 -4.96875 C 0.859375 -5.300781 0.71875 -5.742188 0.71875 -6.296875 C 0.71875 -6.753906 0.835938 -7.171875 1.078125 -7.546875 C 1.328125 -7.921875 1.695312 -8.21875 2.1875 -8.4375 C 2.6875 -8.65625 3.304688 -8.765625 4.046875 -8.765625 C 4.554688 -8.765625 5.054688 -8.695312 5.546875 -8.5625 C 6.046875 -8.4375 6.472656 -8.25 6.828125 -8 L 6.421875 -7.015625 C 6.054688 -7.242188 5.664062 -7.414062 5.25 -7.53125 C 4.84375 -7.65625 4.441406 -7.71875 4.046875 -7.71875 C 3.335938 -7.71875 2.804688 -7.585938 2.453125 -7.328125 C 2.109375 -7.078125 1.9375 -6.75 1.9375 -6.34375 C 1.9375 -6.039062 2.035156 -5.796875 2.234375 -5.609375 C 2.429688 -5.429688 2.675781 -5.289062 2.96875 -5.1875 C 3.257812 -5.082031 3.65625 -4.972656 4.15625 -4.859375 C 4.8125 -4.703125 5.335938 -4.546875 5.734375 -4.390625 C 6.128906 -4.234375 6.46875 -3.992188 6.75 -3.671875 C 7.039062 -3.347656 7.1875 -2.910156 7.1875 -2.359375 C 7.1875 -1.910156 7.0625 -1.5 6.8125 -1.125 C 6.5625 -0.75 6.1875 -0.453125 5.6875 -0.234375 C 5.1875 -0.015625 4.566406 0.09375 3.828125 0.09375 Z M 3.828125 0.09375 "/></g></g></g><g fill="#000000" fill-opacity="1"><g transform="translate(194.871592, 88.603236)"><g><path d="M 3.015625 -7.59375 L 0.046875 -7.59375 L 0.046875 -8.671875 L 7.21875 -8.671875 L 7.21875 -7.59375 L 4.25 -7.59375 L 4.25 0 L 3.015625 0 Z M 3.015625 -7.59375 "/></g></g></g><g fill="#000000" fill-opacity="1"><g transform="translate(202.143959, 88.603236)"><g/></g></g><g fill="#000000" fill-opacity="1"><g transform="translate(121.617505, 105.815682)"><g><path d="M 1.296875 -8.671875 L 4.953125 -8.671875 C 5.867188 -8.671875 6.679688 -8.488281 7.390625 -8.125 C 8.109375 -7.757812 8.660156 -7.25 9.046875 -6.59375 C 9.441406 -5.9375 9.640625 -5.1875 9.640625 -4.34375 C 9.640625 -3.488281 9.441406 -2.734375 9.046875 -2.078125 C 8.660156 -1.421875 8.109375 -0.910156 7.390625 -0.546875 C 6.679688 -0.179688 5.867188 0 4.953125 0 L 1.296875 0 Z M 4.875 -1.078125 C 5.582031 -1.078125 6.203125 -1.210938 6.734375 -1.484375 C 7.265625 -1.753906 7.675781 -2.132812 7.96875 -2.625 C 8.257812 -3.125 8.40625 -3.695312 8.40625 -4.34375 C 8.40625 -4.976562 8.257812 -5.539062 7.96875 -6.03125 C 7.675781 -6.53125 7.265625 -6.914062 6.734375 -7.1875 C 6.203125 -7.457031 5.582031 -7.59375 4.875 -7.59375 L 2.546875 -7.59375 L 2.546875 -1.078125 Z M 4.875 -1.078125 "/></g></g></g><g fill="#000000" fill-opacity="1"><g transform="translate(131.845536, 105.815682)"><g><path d="M 7.09375 0 L 5.234375 -2.65625 C 4.992188 -2.644531 4.8125 -2.640625 4.6875 -2.640625 L 2.546875 -2.640625 L 2.546875 0 L 1.296875 0 L 1.296875 -8.671875 L 4.6875 -8.671875 C 5.8125 -8.671875 6.691406 -8.398438 7.328125 -7.859375 C 7.972656 -7.328125 8.296875 -6.59375 8.296875 -5.65625 C 8.296875 -4.976562 8.128906 -4.40625 7.796875 -3.9375 C 7.472656 -3.46875 7.003906 -3.125 6.390625 -2.90625 L 8.453125 0 Z M 4.640625 -3.6875 C 5.429688 -3.6875 6.03125 -3.851562 6.4375 -4.1875 C 6.851562 -4.53125 7.0625 -5.019531 7.0625 -5.65625 C 7.0625 -6.28125 6.851562 -6.757812 6.4375 -7.09375 C 6.03125 -7.425781 5.429688 -7.59375 4.640625 -7.59375 L 2.546875 -7.59375 L 2.546875 -3.6875 Z M 4.640625 -3.6875 "/></g></g></g><g fill="#000000" fill-opacity="1"><g transform="translate(140.84769, 105.815682)"><g><path d="M 1.296875 -8.671875 L 2.546875 -8.671875 L 2.546875 0 L 1.296875 0 Z M 1.296875 -8.671875 "/></g></g></g><g fill="#000000" fill-opacity="1"><g transform="translate(144.686299, 105.815682)"><g><path d="M 8.828125 -8.671875 L 5.03125 0 L 3.796875 0 L -0.015625 -8.671875 L 1.328125 -8.671875 L 4.453125 -1.546875 L 7.59375 -8.671875 Z M 8.828125 -8.671875 "/></g></g></g><g fill="#000000" fill-opacity="1"><g transform="translate(153.502711, 105.815682)"><g><path d="M 7.59375 -1.078125 L 7.59375 0 L 1.296875 0 L 1.296875 -8.671875 L 7.421875 -8.671875 L 7.421875 -7.59375 L 2.546875 -7.59375 L 2.546875 -4.9375 L 6.890625 -4.9375 L 6.890625 -3.875 L 2.546875 -3.875 L 2.546875 -1.078125 Z M 7.59375 -1.078125 "/></g></g></g><g fill="#000000" fill-opacity="1"><g transform="translate(161.799051, 105.815682)"><g/></g></g><g fill="#000000" fill-opacity="1"><g transform="translate(165.129974, 105.815682)"><g><path d="M 3.015625 -7.59375 L 0.046875 -7.59375 L 0.046875 -8.671875 L 7.21875 -8.671875 L 7.21875 -7.59375 L 4.25 -7.59375 L 4.25 0 L 3.015625 0 Z M 3.015625 -7.59375 "/></g></g></g><g fill="#000000" fill-opacity="1"><g transform="translate(172.398566, 105.815682)"><g><path d="M 7.59375 -1.078125 L 7.59375 0 L 1.296875 0 L 1.296875 -8.671875 L 7.421875 -8.671875 L 7.421875 -7.59375 L 2.546875 -7.59375 L 2.546875 -4.9375 L 6.890625 -4.9375 L 6.890625 -3.875 L 2.546875 -3.875 L 2.546875 -1.078125 Z M 7.59375 -1.078125 "/></g></g></g><g fill="#000000" fill-opacity="1"><g transform="translate(180.694905, 105.815682)"><g><path d="M 3.828125 0.09375 C 3.171875 0.09375 2.539062 -0.00390625 1.9375 -0.203125 C 1.332031 -0.410156 0.859375 -0.671875 0.515625 -0.984375 L 0.96875 -1.953125 C 1.300781 -1.660156 1.722656 -1.421875 2.234375 -1.234375 C 2.753906 -1.046875 3.285156 -0.953125 3.828125 -0.953125 C 4.546875 -0.953125 5.082031 -1.070312 5.4375 -1.3125 C 5.789062 -1.5625 5.96875 -1.890625 5.96875 -2.296875 C 5.96875 -2.585938 5.867188 -2.828125 5.671875 -3.015625 C 5.484375 -3.203125 5.242188 -3.34375 4.953125 -3.4375 C 4.671875 -3.539062 4.269531 -3.65625 3.75 -3.78125 C 3.101562 -3.9375 2.578125 -4.09375 2.171875 -4.25 C 1.773438 -4.40625 1.429688 -4.644531 1.140625 -4.96875 C 0.859375 -5.300781 0.71875 -5.742188 0.71875 -6.296875 C 0.71875 -6.753906 0.835938 -7.171875 1.078125 -7.546875 C 1.328125 -7.921875 1.695312 -8.21875 2.1875 -8.4375 C 2.6875 -8.65625 3.304688 -8.765625 4.046875 -8.765625 C 4.554688 -8.765625 5.054688 -8.695312 5.546875 -8.5625 C 6.046875 -8.4375 6.472656 -8.25 6.828125 -8 L 6.421875 -7.015625 C 6.054688 -7.242188 5.664062 -7.414062 5.25 -7.53125 C 4.84375 -7.65625 4.441406 -7.71875 4.046875 -7.71875 C 3.335938 -7.71875 2.804688 -7.585938 2.453125 -7.328125 C 2.109375 -7.078125 1.9375 -6.75 1.9375 -6.34375 C 1.9375 -6.039062 2.035156 -5.796875 2.234375 -5.609375 C 2.429688 -5.429688 2.675781 -5.289062 2.96875 -5.1875 C 3.257812 -5.082031 3.65625 -4.972656 4.15625 -4.859375 C 4.8125 -4.703125 5.335938 -4.546875 5.734375 -4.390625 C 6.128906 -4.234375 6.46875 -3.992188 6.75 -3.671875 C 7.039062 -3.347656 7.1875 -2.910156 7.1875 -2.359375 C 7.1875 -1.910156 7.0625 -1.5 6.8125 -1.125 C 6.5625 -0.75 6.1875 -0.453125 5.6875 -0.234375 C 5.1875 -0.015625 4.566406 0.09375 3.828125 0.09375 Z M 3.828125 0.09375 "/></g></g></g><g fill="#000000" fill-opacity="1"><g transform="translate(188.3845, 105.815682)"><g><path d="M 3.015625 -7.59375 L 0.046875 -7.59375 L 0.046875 -8.671875 L 7.21875 -8.671875 L 7.21875 -7.59375 L 4.25 -7.59375 L 4.25 0 L 3.015625 0 Z M 3.015625 -7.59375 "/></g></g></g><g fill="#000000" fill-opacity="1"><g transform="translate(195.653091, 105.815682)"><g/></g></g><g fill="#000000" fill-opacity="1"><g transform="translate(198.984015, 105.815682)"><g><path d="M 7.09375 0 L 5.234375 -2.65625 C 4.992188 -2.644531 4.8125 -2.640625 4.6875 -2.640625 L 2.546875 -2.640625 L 2.546875 0 L 1.296875 0 L 1.296875 -8.671875 L 4.6875 -8.671875 C 5.8125 -8.671875 6.691406 -8.398438 7.328125 -7.859375 C 7.972656 -7.328125 8.296875 -6.59375 8.296875 -5.65625 C 8.296875 -4.976562 8.128906 -4.40625 7.796875 -3.9375 C 7.472656 -3.46875 7.003906 -3.125 6.390625 -2.90625 L 8.453125 0 Z M 4.640625 -3.6875 C 5.429688 -3.6875 6.03125 -3.851562 6.4375 -4.1875 C 6.851562 -4.53125 7.0625 -5.019531 7.0625 -5.65625 C 7.0625 -6.28125 6.851562 -6.757812 6.4375 -7.09375 C 6.03125 -7.425781 5.429688 -7.59375 4.640625 -7.59375 L 2.546875 -7.59375 L 2.546875 -3.6875 Z M 4.640625 -3.6875 "/></g></g></g><g fill="#000000" fill-opacity="1"><g transform="translate(207.986169, 105.815682)"><g><path d="M 7.59375 -1.078125 L 7.59375 0 L 1.296875 0 L 1.296875 -8.671875 L 7.421875 -8.671875 L 7.421875 -7.59375 L 2.546875 -7.59375 L 2.546875 -4.9375 L 6.890625 -4.9375 L 6.890625 -3.875 L 2.546875 -3.875 L 2.546875 -1.078125 Z M 7.59375 -1.078125 "/></g></g></g><g fill="#000000" fill-opacity="1"><g transform="translate(216.282508, 105.815682)"><g><path d="M 8.765625 -8.671875 L 8.765625 0 L 7.75 0 L 2.546875 -6.46875 L 2.546875 0 L 1.296875 0 L 1.296875 -8.671875 L 2.3125 -8.671875 L 7.515625 -2.203125 L 7.515625 -8.671875 Z M 8.765625 -8.671875 "/></g></g></g><g fill="#000000" fill-opacity="1"><g transform="translate(226.337186, 105.815682)"><g><path d="M 3.015625 -7.59375 L 0.046875 -7.59375 L 0.046875 -8.671875 L 7.21875 -8.671875 L 7.21875 -7.59375 L 4.25 -7.59375 L 4.25 0 L 3.015625 0 Z M 3.015625 -7.59375 "/></g></g></g><g fill="#000000" fill-opacity="1"><g transform="translate(233.605778, 105.815682)"><g><path d="M 6.828125 -2.171875 L 2.21875 -2.171875 L 1.265625 0 L -0.015625 0 L 3.921875 -8.671875 L 5.140625 -8.671875 L 9.078125 0 L 7.78125 0 Z M 6.390625 -3.15625 L 4.515625 -7.40625 L 2.65625 -3.15625 Z M 6.390625 -3.15625 "/></g></g></g><g fill="#000000" fill-opacity="1"><g transform="translate(242.669839, 105.815682)"><g><path d="M 1.296875 -8.671875 L 2.546875 -8.671875 L 2.546875 -1.078125 L 7.234375 -1.078125 L 7.234375 0 L 1.296875 0 Z M 1.296875 -8.671875 "/></g></g></g><g fill="#000000" fill-opacity="1"><g transform="translate(250.02728, 105.815682)"><g/></g></g><g fill="#000000" fill-opacity="1"><g transform="translate(160.042945, 123.028127)"><g><path d="M 3.828125 0.09375 C 3.171875 0.09375 2.539062 -0.00390625 1.9375 -0.203125 C 1.332031 -0.410156 0.859375 -0.671875 0.515625 -0.984375 L 0.96875 -1.953125 C 1.300781 -1.660156 1.722656 -1.421875 2.234375 -1.234375 C 2.753906 -1.046875 3.285156 -0.953125 3.828125 -0.953125 C 4.546875 -0.953125 5.082031 -1.070312 5.4375 -1.3125 C 5.789062 -1.5625 5.96875 -1.890625 5.96875 -2.296875 C 5.96875 -2.585938 5.867188 -2.828125 5.671875 -3.015625 C 5.484375 -3.203125 5.242188 -3.34375 4.953125 -3.4375 C 4.671875 -3.539062 4.269531 -3.65625 3.75 -3.78125 C 3.101562 -3.9375 2.578125 -4.09375 2.171875 -4.25 C 1.773438 -4.40625 1.429688 -4.644531 1.140625 -4.96875 C 0.859375 -5.300781 0.71875 -5.742188 0.71875 -6.296875 C 0.71875 -6.753906 0.835938 -7.171875 1.078125 -7.546875 C 1.328125 -7.921875 1.695312 -8.21875 2.1875 -8.4375 C 2.6875 -8.65625 3.304688 -8.765625 4.046875 -8.765625 C 4.554688 -8.765625 5.054688 -8.695312 5.546875 -8.5625 C 6.046875 -8.4375 6.472656 -8.25 6.828125 -8 L 6.421875 -7.015625 C 6.054688 -7.242188 5.664062 -7.414062 5.25 -7.53125 C 4.84375 -7.65625 4.441406 -7.71875 4.046875 -7.71875 C 3.335938 -7.71875 2.804688 -7.585938 2.453125 -7.328125 C 2.109375 -7.078125 1.9375 -6.75 1.9375 -6.34375 C 1.9375 -6.039062 2.035156 -5.796875 2.234375 -5.609375 C 2.429688 -5.429688 2.675781 -5.289062 2.96875 -5.1875 C 3.257812 -5.082031 3.65625 -4.972656 4.15625 -4.859375 C 4.8125 -4.703125 5.335938 -4.546875 5.734375 -4.390625 C 6.128906 -4.234375 6.46875 -3.992188 6.75 -3.671875 C 7.039062 -3.347656 7.1875 -2.910156 7.1875 -2.359375 C 7.1875 -1.910156 7.0625 -1.5 6.8125 -1.125 C 6.5625 -0.75 6.1875 -0.453125 5.6875 -0.234375 C 5.1875 -0.015625 4.566406 0.09375 3.828125 0.09375 Z M 3.828125 0.09375 "/></g></g></g><g fill="#000000" fill-opacity="1"><g transform="translate(167.732539, 123.028127)"><g><path d="M 7.59375 -1.078125 L 7.59375 0 L 1.296875 0 L 1.296875 -8.671875 L 7.421875 -8.671875 L 7.421875 -7.59375 L 2.546875 -7.59375 L 2.546875 -4.9375 L 6.890625 -4.9375 L 6.890625 -3.875 L 2.546875 -3.875 L 2.546875 -1.078125 Z M 7.59375 -1.078125 "/></g></g></g><g fill="#000000" fill-opacity="1"><g transform="translate(176.028879, 123.028127)"><g><path d="M 7.09375 0 L 5.234375 -2.65625 C 4.992188 -2.644531 4.8125 -2.640625 4.6875 -2.640625 L 2.546875 -2.640625 L 2.546875 0 L 1.296875 0 L 1.296875 -8.671875 L 4.6875 -8.671875 C 5.8125 -8.671875 6.691406 -8.398438 7.328125 -7.859375 C 7.972656 -7.328125 8.296875 -6.59375 8.296875 -5.65625 C 8.296875 -4.976562 8.128906 -4.40625 7.796875 -3.9375 C 7.472656 -3.46875 7.003906 -3.125 6.390625 -2.90625 L 8.453125 0 Z M 4.640625 -3.6875 C 5.429688 -3.6875 6.03125 -3.851562 6.4375 -4.1875 C 6.851562 -4.53125 7.0625 -5.019531 7.0625 -5.65625 C 7.0625 -6.28125 6.851562 -6.757812 6.4375 -7.09375 C 6.03125 -7.425781 5.429688 -7.59375 4.640625 -7.59375 L 2.546875 -7.59375 L 2.546875 -3.6875 Z M 4.640625 -3.6875 "/></g></g></g><g fill="#000000" fill-opacity="1"><g transform="translate(185.031033, 123.028127)"><g><path d="M 8.828125 -8.671875 L 5.03125 0 L 3.796875 0 L -0.015625 -8.671875 L 1.328125 -8.671875 L 4.453125 -1.546875 L 7.59375 -8.671875 Z M 8.828125 -8.671875 "/></g></g></g><g fill="#000000" fill-opacity="1"><g transform="translate(193.847445, 123.028127)"><g><path d="M 1.296875 -8.671875 L 2.546875 -8.671875 L 2.546875 0 L 1.296875 0 Z M 1.296875 -8.671875 "/></g></g></g><g fill="#000000" fill-opacity="1"><g transform="translate(197.686054, 123.028127)"><g><path d="M 5.171875 0.09375 C 4.304688 0.09375 3.523438 -0.09375 2.828125 -0.46875 C 2.128906 -0.851562 1.582031 -1.382812 1.1875 -2.0625 C 0.789062 -2.738281 0.59375 -3.5 0.59375 -4.34375 C 0.59375 -5.175781 0.789062 -5.929688 1.1875 -6.609375 C 1.582031 -7.285156 2.128906 -7.8125 2.828125 -8.1875 C 3.535156 -8.570312 4.320312 -8.765625 5.1875 -8.765625 C 5.863281 -8.765625 6.484375 -8.648438 7.046875 -8.421875 C 7.609375 -8.203125 8.085938 -7.867188 8.484375 -7.421875 L 7.6875 -6.640625 C 7.03125 -7.328125 6.210938 -7.671875 5.234375 -7.671875 C 4.597656 -7.671875 4.019531 -7.523438 3.5 -7.234375 C 2.976562 -6.941406 2.566406 -6.539062 2.265625 -6.03125 C 1.972656 -5.53125 1.828125 -4.96875 1.828125 -4.34375 C 1.828125 -3.707031 1.972656 -3.132812 2.265625 -2.625 C 2.566406 -2.125 2.976562 -1.726562 3.5 -1.4375 C 4.019531 -1.144531 4.597656 -1 5.234375 -1 C 6.203125 -1 7.019531 -1.347656 7.6875 -2.046875 L 8.484375 -1.265625 C 8.085938 -0.816406 7.601562 -0.476562 7.03125 -0.25 C 6.46875 -0.0195312 5.847656 0.09375 5.171875 0.09375 Z M 5.171875 0.09375 "/></g></g></g><g fill="#000000" fill-opacity="1"><g transform="translate(206.638678, 123.028127)"><g><path d="M 7.59375 -1.078125 L 7.59375 0 L 1.296875 0 L 1.296875 -8.671875 L 7.421875 -8.671875 L 7.421875 -7.59375 L 2.546875 -7.59375 L 2.546875 -4.9375 L 6.890625 -4.9375 L 6.890625 -3.875 L 2.546875 -3.875 L 2.546875 -1.078125 Z M 7.59375 -1.078125 "/></g></g></g></svg>