<svg width="340" height="340" viewBox="0 0 340 340" fill="none" xmlns="http://www.w3.org/2000/svg">
<g filter="url(#filter0_i_11_341)">
<rect width="340" height="340" rx="65" fill="url(#paint0_linear_11_341)"/>
</g>
<rect x="0.5" y="0.5" width="339" height="339" rx="64.5" stroke="#E3E3E3"/>
<path d="M219.245 165.884C224.548 159.187 226.416 150.009 223.352 141.383C220.287 132.757 213.05 126.809 204.716 124.952L219.245 165.884Z" fill="#4CAF50"/>
<path d="M187.59 100.903C185.556 95.1925 180.799 91.0365 174.863 89.7852C168.921 88.5285 162.858 90.4191 158.68 94.8397C155.439 98.2737 152.495 101.465 149.734 104.464C134.003 121.54 124.913 131.379 100.562 142.182L127.559 218.236C152.6 211.771 166.264 213.623 188.059 216.605C192.573 217.222 197.424 217.884 202.77 218.534C208.734 219.256 214.604 216.875 218.391 212.151C222.161 207.444 223.214 201.243 221.197 195.566L187.59 100.903Z" fill="#4CAF50"/>
<path d="M142.281 226.35C137.326 227.182 132.1 228.351 126.302 229.982L104.711 237.644L133.704 274.552C135.606 276.972 138.335 278.493 141.394 278.841C141.829 278.89 142.27 278.918 142.7 278.918C145.296 278.918 147.793 278.036 149.838 276.388L160.421 267.844C165.233 263.958 166.049 256.826 162.251 251.948L142.281 226.35Z" fill="black"/>
<path d="M90.2826 146.162L58.0045 157.616C49.4113 160.664 44.908 170.134 47.9506 178.732L63.6542 222.971C65.1314 227.133 68.141 230.473 72.1317 232.375C74.3861 233.444 76.8003 233.984 79.2311 233.984C81.0941 233.984 82.9627 233.665 84.7706 233.025L117.049 221.571L90.2826 146.162ZM68.4552 190.087C66.1842 190.087 64.0621 188.676 63.2629 186.416C62.2432 183.544 63.7424 180.397 66.6142 179.377L83.5525 173.364C86.4077 172.344 89.5716 173.843 90.5913 176.715C91.611 179.587 90.1117 182.734 87.24 183.754L70.3017 189.767C69.6954 189.982 69.0615 190.087 68.4552 190.087ZM95.2599 206.342L78.3161 212.355C77.7098 212.57 77.0814 212.675 76.4751 212.675C74.2042 212.675 72.0821 211.264 71.2828 209.004C70.2631 206.132 71.7624 202.985 74.6341 201.965L91.5779 195.952C94.4331 194.926 97.597 196.431 98.6167 199.303C99.6364 202.175 98.1372 205.322 95.2654 206.342H95.2599Z" fill="black"/>
<path d="M225.312 61L207.187 81.75L219.687 88L205 104.75H221.562L239.688 84L227.188 77.75L241.875 61H225.312Z" fill="black"/>
<path d="M274.546 202.944L259.194 180.066L249.922 190.522L237.544 172L233.257 187.998L248.609 210.876L257.881 200.42L270.259 218.942L274.546 202.944Z" fill="black"/>
<path d="M280.299 115.363L252.81 117.219L257.23 130.478L235 131.936L246.712 143.647L274.2 141.791L269.781 128.533L292.011 127.075L280.299 115.363Z" fill="black"/>
<defs>
<filter id="filter0_i_11_341" x="0" y="0" width="340" height="344" filterUnits="userSpaceOnUse" color-interpolation-filters="sRGB">
<feFlood flood-opacity="0" result="BackgroundImageFix"/>
<feBlend mode="normal" in="SourceGraphic" in2="BackgroundImageFix" result="shape"/>
<feColorMatrix in="SourceAlpha" type="matrix" values="0 0 0 0 0 0 0 0 0 0 0 0 0 0 0 0 0 0 127 0" result="hardAlpha"/>
<feOffset dy="4"/>
<feGaussianBlur stdDeviation="10"/>
<feComposite in2="hardAlpha" operator="arithmetic" k2="-1" k3="1"/>
<feColorMatrix type="matrix" values="0 0 0 0 0 0 0 0 0 0 0 0 0 0 0 0 0 0 0.25 0"/>
<feBlend mode="normal" in2="shape" result="effect1_innerShadow_11_341"/>
</filter>
<linearGradient id="paint0_linear_11_341" x1="170" y1="0" x2="170" y2="428" gradientUnits="userSpaceOnUse">
<stop stop-color="white"/>
<stop offset="1" stop-color="#F7FFF7"/>
</linearGradient>
</defs>
</svg>
