<svg width="749" height="226" viewBox="0 0 749 226" fill="none" xmlns="http://www.w3.org/2000/svg">
<path d="M75.264 225.072C64.6827 225.072 55.296 223.365 47.104 219.952C39.0827 216.368 32.256 211.504 26.624 205.36C21.1627 199.045 16.9813 191.621 14.08 183.088C11.1787 174.384 9.728 164.912 9.728 154.672C9.728 143.92 11.1787 134.192 14.08 125.488C17.152 116.784 21.4187 109.445 26.88 103.472C32.512 97.4987 39.168 92.8907 46.848 89.648C54.6987 86.4053 63.4027 84.784 72.96 84.784C82.5173 84.784 91.136 86.2347 98.816 89.136C106.496 92.0373 112.981 96.2187 118.272 101.68C123.733 106.971 127.915 113.456 130.816 121.136C133.717 128.816 135.168 137.349 135.168 146.736V155.44H50.944V165.68C50.944 177.115 53.9307 185.733 59.904 191.536C65.8773 197.339 73.8133 200.24 83.712 200.24C92.928 200.24 100.352 198.192 105.984 194.096C111.616 189.829 115.627 184.709 118.016 178.736L132.096 187.184C130.56 191.451 128.341 195.803 125.44 200.24C122.539 204.677 118.784 208.773 114.176 212.528C109.568 216.112 104.021 219.099 97.536 221.488C91.0507 223.877 83.6267 225.072 75.264 225.072ZM50.944 139.312H94.976V135.728C94.976 123.44 93.0133 114.821 89.088 109.872C85.1627 104.923 79.7867 102.448 72.96 102.448C66.1333 102.448 60.7573 104.923 56.832 109.872C52.9067 114.821 50.944 123.44 50.944 135.728V139.312Z" fill="#4CAF50"/>
<path d="M136.552 205.104H151.912V56.368L136.552 53.04V38.448L190.824 27.44V205.104H206.184V222H136.552V205.104ZM247.7 225.072C233.193 225.072 222.612 221.744 215.956 215.088C209.471 208.261 206.228 198.789 206.228 186.672C206.228 160.219 225.769 146.992 264.852 146.992H282.772V132.4C282.772 121.989 280.809 114.139 276.884 108.848C272.959 103.557 266.132 100.912 256.404 100.912C252.82 100.912 249.748 101.168 247.188 101.68C244.628 102.192 242.409 102.875 240.532 103.728V105.008C242.239 105.861 243.86 107.397 245.396 109.616C247.103 111.835 247.956 114.821 247.956 118.576C247.956 123.696 246.335 128.048 243.092 131.632C239.849 135.045 234.985 136.752 228.5 136.752C223.38 136.752 219.113 134.96 215.7 131.376C212.287 127.792 210.58 123.269 210.58 117.808C210.58 113.712 211.775 109.701 214.164 105.776C216.553 101.68 220.137 98.096 224.916 95.024C229.695 91.952 235.583 89.4773 242.58 87.6C249.748 85.7227 257.94 84.784 267.156 84.784C285.759 84.784 299.497 88.7947 308.372 96.816C317.247 104.667 321.684 115.845 321.684 130.352V205.104H337.044V219.696C334.143 221.403 330.388 222.683 325.78 223.536C321.172 224.56 316.393 225.072 311.444 225.072C302.057 225.072 295.401 222.939 291.476 218.672C287.721 214.235 285.844 208.773 285.844 202.288V201.776H284.308C283.113 204.677 281.577 207.493 279.7 210.224C277.993 212.955 275.689 215.429 272.788 217.648C270.057 219.867 266.644 221.659 262.548 223.024C258.452 224.389 253.503 225.072 247.7 225.072ZM262.292 202.032C268.607 202.032 273.556 200.581 277.14 197.68C280.895 194.779 282.772 189.744 282.772 182.576V162.352H268.948C260.756 162.352 254.612 164.059 250.516 167.472C246.591 170.885 244.628 175.749 244.628 182.064V186.16C244.628 191.621 246.249 195.632 249.492 198.192C252.735 200.752 257.001 202.032 262.292 202.032ZM338.142 205.104H353.502V113.712L338.142 110.384V95.792L391.646 84.784V110.128H392.926C395.315 103.301 399.582 97.4133 405.726 92.464C411.87 87.344 420.318 84.784 431.07 84.784C447.454 84.784 458.974 88.9653 465.63 97.328C472.457 105.52 475.87 117.893 475.87 134.448V205.104H491.23V222H422.878V205.104H436.958V135.728C436.958 126.683 435.337 120.283 432.094 116.528C429.022 112.603 423.731 110.64 416.222 110.64C413.321 110.64 410.419 111.067 407.518 111.92C404.617 112.603 402.057 113.797 399.838 115.504C397.619 117.04 395.827 119.088 394.462 121.648C393.097 124.037 392.414 127.024 392.414 130.608V205.104H406.494V222H338.142V205.104Z" fill="black"/>
<path d="M69.5003 48.3003C68.0416 46.8416 67.2221 44.8632 67.2221 42.8002C67.2221 40.7373 68.0416 38.7589 69.5003 37.3002C70.959 35.8415 72.9374 35.022 75.0004 35.022C77.0633 35.022 79.0417 35.8415 80.5004 37.3002C81.9591 38.7589 82.7786 40.7373 82.7786 42.8002C82.7786 44.8632 81.9591 46.8416 80.5004 48.3003C79.7781 49.0226 78.9207 49.5955 77.977 49.9864C77.0333 50.3773 76.0218 50.5785 75.0004 50.5785C73.9789 50.5785 72.9675 50.3773 72.0238 49.9864C71.0801 49.5955 70.2226 49.0226 69.5003 48.3003ZM90.4005 27.4001C86.3161 23.3158 80.7765 21.0212 75.0004 21.0212C69.2242 21.0212 63.6846 23.3158 59.6002 27.4001C48.0502 38.9502 46.4001 71.4005 46.4001 71.4005C46.4001 71.4005 78.8504 69.7505 90.4005 58.2004C94.4849 54.116 96.7794 48.5764 96.7794 42.8002C96.7794 37.0241 94.4849 31.4845 90.4005 27.4001Z" fill="black"/>
<path d="M674.735 107.008C680.145 100.176 682.051 90.8123 678.924 82.0113C675.798 73.2104 668.414 67.1425 659.911 65.2473L674.735 107.008Z" fill="#4CAF50"/>
<path d="M642.438 40.7112C640.363 34.8852 635.51 30.645 629.454 29.3684C623.391 28.0862 617.205 30.0151 612.943 34.5253C609.636 38.0288 606.633 41.2848 603.815 44.3441C587.766 61.7661 578.492 71.8042 553.647 82.8265L581.192 160.421C606.74 153.825 620.681 155.714 642.916 158.757C647.522 159.387 652.471 160.061 657.926 160.725C664.011 161.462 670 159.032 673.863 154.213C677.71 149.41 678.784 143.084 676.726 137.291L642.438 40.7112Z" fill="#4CAF50"/>
<path d="M596.21 168.699C591.155 169.548 585.824 170.74 579.907 172.405L557.88 180.222L587.46 217.878C589.4 220.346 592.184 221.899 595.305 222.253C595.749 222.303 596.199 222.332 596.638 222.332C599.286 222.332 601.834 221.432 603.92 219.75L614.718 211.034C619.627 207.069 620.459 199.792 616.585 194.815L596.21 168.699Z" fill="black"/>
<path d="M543.159 86.887L510.227 98.5728C501.46 101.683 496.866 111.344 499.97 120.117L515.992 165.252C517.499 169.498 520.569 172.906 524.641 174.846C526.941 175.937 529.404 176.488 531.884 176.488C533.785 176.488 535.691 176.162 537.536 175.51L570.468 163.824L543.159 86.887ZM520.89 131.702C518.573 131.702 516.408 130.262 515.592 127.956C514.552 125.026 516.082 121.815 519.011 120.775L536.293 114.64C539.206 113.599 542.434 115.129 543.474 118.059C544.515 120.989 542.985 124.2 540.055 125.24L522.774 131.375C522.155 131.595 521.508 131.702 520.89 131.702ZM548.237 148.286L530.95 154.421C530.332 154.64 529.691 154.747 529.072 154.747C526.755 154.747 524.59 153.308 523.775 151.002C522.734 148.072 524.264 144.861 527.194 143.82L544.481 137.685C547.394 136.639 550.622 138.174 551.662 141.104C552.703 144.034 551.173 147.245 548.243 148.286H548.237Z" fill="black"/>
<path d="M680.924 0L662.432 21.1703L675.185 27.5469L660.2 44.6361H677.098L695.59 23.4658L682.837 17.0893L697.822 0H680.924Z" fill="black"/>
<path d="M731.154 144.819L715.491 121.477L706.031 132.146L693.403 113.248L689.029 129.57L704.692 152.912L714.152 142.243L726.781 161.141L731.154 144.819Z" fill="black"/>
<path d="M737.025 52.4818L708.979 54.3755L713.488 67.9023L690.808 69.3903L702.757 81.3389L730.802 79.4452L726.293 65.9184L748.973 64.4304L737.025 52.4818Z" fill="black"/>
</svg>
