<svg width="210" height="243" viewBox="0 0 210 243" fill="none" xmlns="http://www.w3.org/2000/svg">
<path d="M145.218 73.1968C148.919 68.523 150.223 62.1182 148.084 56.0981C145.945 50.078 140.894 45.9273 135.078 44.631L145.218 73.1968Z" fill="#4CAF50"/>
<path d="M123.127 27.8477C121.707 23.8624 118.387 20.962 114.245 20.0888C110.098 19.2117 105.866 20.5312 102.951 23.6162C100.689 26.0128 98.6345 28.24 96.7073 30.3326C85.7287 42.2498 79.3854 49.1162 62.3906 56.6558L81.2319 109.733C98.7076 105.221 108.244 106.513 123.454 108.594C126.604 109.025 129.989 109.487 133.721 109.941C137.883 110.445 141.979 108.783 144.622 105.486C147.253 102.201 147.988 97.8736 146.58 93.9114L123.127 27.8477Z" fill="#4CAF50"/>
<path d="M91.5061 115.395C88.0479 115.976 84.4012 116.792 80.3544 117.93L65.2867 123.277L85.5206 149.035C86.8477 150.724 88.7518 151.786 90.8867 152.028C91.1906 152.063 91.4984 152.082 91.7984 152.082C93.6102 152.082 95.3528 151.466 96.7799 150.316L104.166 144.354C107.524 141.642 108.093 136.664 105.443 133.26L91.5061 115.395Z" fill="white"/>
<path d="M55.2171 59.4333L32.6906 67.4269C26.6935 69.5541 23.5508 76.1628 25.6742 82.1637L36.6335 113.038C37.6644 115.942 39.7647 118.273 42.5498 119.6C44.1231 120.346 45.808 120.723 47.5044 120.723C48.8046 120.723 50.1086 120.5 51.3703 120.054L73.8968 112.06L55.2171 59.4333ZM39.984 90.088C38.3991 90.088 36.9182 89.1032 36.3604 87.526C35.6487 85.5219 36.695 83.3254 38.6992 82.6138L50.5202 78.417C52.5128 77.7053 54.7208 78.7516 55.4325 80.7558C56.1441 82.7599 55.0978 84.9564 53.0937 85.6681L41.2727 89.8648C40.8495 90.0149 40.4071 90.088 39.984 90.088ZM58.6907 101.432L46.8658 105.629C46.4427 105.779 46.0041 105.852 45.581 105.852C43.9961 105.852 42.5151 104.867 41.9574 103.29C41.2457 101.286 42.292 99.0893 44.2962 98.3777L56.121 94.1809C58.1136 93.4654 60.3217 94.5155 61.0333 96.5197C61.745 98.5238 60.6987 100.72 58.6945 101.432H58.6907Z" fill="white"/>
<path d="M149.452 0L136.803 14.4811L145.527 18.8429L135.277 30.5325H146.835L159.485 16.0514L150.761 11.6896L161.011 0H149.452Z" fill="white"/>
<path d="M183.812 99.0605L173.098 83.0944L166.627 90.3918L157.989 77.4653L154.997 88.6302L165.711 104.596L172.182 97.299L180.82 110.225L183.812 99.0605Z" fill="white"/>
<path d="M187.827 37.9392L168.643 39.2346L171.727 48.4874L156.213 49.5052L164.387 57.6784L183.571 56.383L180.486 47.1303L196 46.1125L187.827 37.9392Z" fill="white"/>
<path d="M28.224 242.234C24.256 242.234 20.736 241.594 17.664 240.314C14.656 238.97 12.096 237.146 9.984 234.842C7.936 232.474 6.368 229.69 5.28 226.49C4.192 223.226 3.648 219.674 3.648 215.834C3.648 211.802 4.192 208.154 5.28 204.89C6.432 201.626 8.032 198.874 10.08 196.634C12.192 194.394 14.688 192.666 17.568 191.45C20.512 190.234 23.776 189.626 27.36 189.626C30.944 189.626 34.176 190.17 37.056 191.258C39.936 192.346 42.368 193.914 44.352 195.962C46.4 197.946 47.968 200.378 49.056 203.258C50.144 206.138 50.688 209.338 50.688 212.858V216.122H19.104V219.962C19.104 224.25 20.224 227.482 22.464 229.658C24.704 231.834 27.68 232.922 31.392 232.922C34.848 232.922 37.632 232.154 39.744 230.618C41.856 229.018 43.36 227.098 44.256 224.858L49.536 228.026C48.96 229.626 48.128 231.258 47.04 232.922C45.952 234.586 44.544 236.122 42.816 237.53C41.088 238.874 39.008 239.994 36.576 240.89C34.144 241.786 31.36 242.234 28.224 242.234ZM19.104 210.074H35.616V208.73C35.616 204.122 34.88 200.89 33.408 199.034C31.936 197.178 29.92 196.25 27.36 196.25C24.8 196.25 22.784 197.178 21.312 199.034C19.84 200.89 19.104 204.122 19.104 208.73V210.074ZM195.527 242.234C192.711 242.234 190.567 241.434 189.095 239.834C187.623 238.17 186.887 236.186 186.887 233.882V233.498C186.887 231.194 187.623 229.242 189.095 227.642C190.567 225.978 192.711 225.146 195.527 225.146C198.343 225.146 200.487 225.978 201.959 227.642C203.431 229.242 204.167 231.194 204.167 233.498V233.882C204.167 236.186 203.431 238.17 201.959 239.834C200.487 241.434 198.343 242.234 195.527 242.234Z" fill="#4CAF50"/>
<path d="M51.207 234.746H56.967V178.97L51.207 177.722V172.25L71.559 168.122V234.746H77.319V241.082H51.207V234.746ZM92.8875 242.234C87.4475 242.234 83.4795 240.986 80.9835 238.49C78.5515 235.93 77.3355 232.378 77.3355 227.834C77.3355 217.914 84.6635 212.954 99.3195 212.954H106.039V207.482C106.039 203.578 105.303 200.634 103.831 198.65C102.359 196.666 99.7995 195.674 96.1515 195.674C94.8075 195.674 93.6555 195.77 92.6955 195.962C91.7355 196.154 90.9035 196.41 90.1995 196.73V197.21C90.8395 197.53 91.4475 198.106 92.0235 198.938C92.6635 199.77 92.9835 200.89 92.9835 202.298C92.9835 204.218 92.3755 205.85 91.1595 207.194C89.9435 208.474 88.1195 209.114 85.6875 209.114C83.7675 209.114 82.1675 208.442 80.8875 207.098C79.6075 205.754 78.9675 204.058 78.9675 202.01C78.9675 200.474 79.4155 198.97 80.3115 197.498C81.2075 195.962 82.5515 194.618 84.3435 193.466C86.1355 192.314 88.3435 191.386 90.9675 190.682C93.6555 189.978 96.7275 189.626 100.183 189.626C107.159 189.626 112.311 191.13 115.639 194.138C118.967 197.082 120.631 201.274 120.631 206.714V234.746H126.391V240.218C125.303 240.858 123.895 241.338 122.167 241.658C120.439 242.042 118.647 242.234 116.791 242.234C113.271 242.234 110.775 241.434 109.303 239.834C107.895 238.17 107.191 236.122 107.191 233.69V233.498H106.615C106.167 234.586 105.591 235.642 104.887 236.666C104.247 237.69 103.383 238.618 102.295 239.45C101.271 240.282 99.9915 240.954 98.4555 241.466C96.9195 241.978 95.0635 242.234 92.8875 242.234ZM98.3595 233.594C100.727 233.594 102.583 233.05 103.927 231.962C105.335 230.874 106.039 228.986 106.039 226.298V218.714H100.855C97.7835 218.714 95.4795 219.354 93.9435 220.634C92.4715 221.914 91.7355 223.738 91.7355 226.106V227.642C91.7355 229.69 92.3435 231.194 93.5595 232.154C94.7755 233.114 96.3755 233.594 98.3595 233.594ZM126.803 234.746H132.563V200.474L126.803 199.226V193.754L146.867 189.626V199.13H147.347C148.243 196.57 149.843 194.362 152.147 192.506C154.451 190.586 157.619 189.626 161.651 189.626C167.795 189.626 172.115 191.194 174.611 194.33C177.171 197.402 178.451 202.042 178.451 208.25V234.746H184.211V241.082H158.579V234.746H163.859V208.73C163.859 205.338 163.251 202.938 162.035 201.53C160.883 200.058 158.899 199.322 156.083 199.322C154.995 199.322 153.907 199.482 152.819 199.802C151.731 200.058 150.771 200.506 149.939 201.146C149.107 201.722 148.435 202.49 147.923 203.45C147.411 204.346 147.155 205.466 147.155 206.81V234.746H152.435V241.082H126.803V234.746Z" fill="white"/>
</svg>
