<svg width="250" height="223" viewBox="0 0 250 223" fill="none" xmlns="http://www.w3.org/2000/svg">
<path d="M175.735 107.008C181.145 100.176 183.051 90.8123 179.924 82.0113C176.798 73.2104 169.414 67.1425 160.911 65.2473L175.735 107.008Z" fill="#4CAF50"/>
<path d="M143.438 40.7112C141.363 34.8852 136.51 30.645 130.454 29.3684C124.391 28.0862 118.205 30.0151 113.943 34.5253C110.636 38.0288 107.633 41.2848 104.815 44.3441C88.7656 61.7661 79.4923 71.8042 54.6471 82.8265L82.1916 160.421C107.74 153.825 121.681 155.714 143.916 158.757C148.522 159.387 153.471 160.061 158.926 160.725C165.011 161.462 171 159.032 174.863 154.213C178.71 149.41 179.784 143.084 177.726 137.291L143.438 40.7112Z" fill="#4CAF50"/>
<path d="M97.2104 168.699C92.1547 169.548 86.8235 170.74 80.9075 172.405L58.8798 180.222L88.46 217.878C90.4001 220.346 93.1838 221.899 96.305 222.253C96.7492 222.303 97.1991 222.332 97.6377 222.332C100.286 222.332 102.834 221.432 104.92 219.75L115.718 211.034C120.627 207.069 121.459 199.792 117.585 194.815L97.2104 168.699Z" fill="black"/>
<path d="M44.1593 86.887L11.2273 98.5728C2.46012 101.683 -2.13438 111.344 0.969856 120.117L16.9916 165.252C18.4987 169.498 21.5692 172.906 25.6407 174.846C27.9407 175.937 30.4039 176.488 32.8839 176.488C34.7847 176.488 36.6911 176.162 38.5356 175.51L71.4676 163.824L44.1593 86.887ZM21.8897 131.702C19.5728 131.702 17.4077 130.262 16.5923 127.956C15.5519 125.026 17.0815 121.815 20.0114 120.775L37.2928 114.64C40.2059 113.599 43.4338 115.129 44.4742 118.059C45.5146 120.989 43.9849 124.2 41.055 125.24L23.7736 131.375C23.155 131.595 22.5083 131.702 21.8897 131.702ZM49.2374 148.286L31.9504 154.421C31.3318 154.64 30.6907 154.747 30.0721 154.747C27.7552 154.747 25.5901 153.308 24.7746 151.002C23.7343 148.072 25.2639 144.861 28.1938 143.82L45.4808 137.685C48.3938 136.639 51.6218 138.174 52.6622 141.104C53.7025 144.034 52.1729 147.245 49.243 148.286H49.2374Z" fill="black"/>
<path d="M181.924 0L163.432 21.1703L176.185 27.5469L161.2 44.6361H178.098L196.59 23.4658L183.837 17.0893L198.822 0H181.924Z" fill="black"/>
<path d="M232.154 144.819L216.491 121.477L207.031 132.146L194.403 113.248L190.029 129.57L205.692 152.912L215.152 142.243L227.781 161.141L232.154 144.819Z" fill="black"/>
<path d="M238.025 52.4818L209.979 54.3755L214.488 67.9023L191.808 69.3903L203.757 81.3389L231.802 79.4452L227.293 65.9184L249.973 64.4304L238.025 52.4818Z" fill="black"/>
</svg>
