<svg width="749" height="299" viewBox="0 0 749 299" fill="none" xmlns="http://www.w3.org/2000/svg">
<path d="M75.264 225.072C64.6827 225.072 55.296 223.365 47.104 219.952C39.0827 216.368 32.256 211.504 26.624 205.36C21.1627 199.045 16.9813 191.621 14.08 183.088C11.1787 174.384 9.728 164.912 9.728 154.672C9.728 143.92 11.1787 134.192 14.08 125.488C17.152 116.784 21.4187 109.445 26.88 103.472C32.512 97.4987 39.168 92.8907 46.848 89.648C54.6987 86.4053 63.4027 84.784 72.96 84.784C82.5173 84.784 91.136 86.2347 98.816 89.136C106.496 92.0373 112.981 96.2187 118.272 101.68C123.733 106.971 127.915 113.456 130.816 121.136C133.717 128.816 135.168 137.349 135.168 146.736V155.44H50.944V165.68C50.944 177.115 53.9307 185.733 59.904 191.536C65.8773 197.339 73.8133 200.24 83.712 200.24C92.928 200.24 100.352 198.192 105.984 194.096C111.616 189.829 115.627 184.709 118.016 178.736L132.096 187.184C130.56 191.451 128.341 195.803 125.44 200.24C122.539 204.677 118.784 208.773 114.176 212.528C109.568 216.112 104.021 219.099 97.536 221.488C91.0507 223.877 83.6267 225.072 75.264 225.072ZM50.944 139.312H94.976V135.728C94.976 123.44 93.0133 114.821 89.088 109.872C85.1627 104.923 79.7867 102.448 72.96 102.448C66.1333 102.448 60.7573 104.923 56.832 109.872C52.9067 114.821 50.944 123.44 50.944 135.728V139.312Z" fill="#4CAF50"/>
<path d="M136.552 205.104H151.912V56.368L136.552 53.04V38.448L190.824 27.44V205.104H206.184V222H136.552V205.104ZM247.7 225.072C233.193 225.072 222.612 221.744 215.956 215.088C209.471 208.261 206.228 198.789 206.228 186.672C206.228 160.219 225.769 146.992 264.852 146.992H282.772V132.4C282.772 121.989 280.809 114.139 276.884 108.848C272.959 103.557 266.132 100.912 256.404 100.912C252.82 100.912 249.748 101.168 247.188 101.68C244.628 102.192 242.409 102.875 240.532 103.728V105.008C242.239 105.861 243.86 107.397 245.396 109.616C247.103 111.835 247.956 114.821 247.956 118.576C247.956 123.696 246.335 128.048 243.092 131.632C239.849 135.045 234.985 136.752 228.5 136.752C223.38 136.752 219.113 134.96 215.7 131.376C212.287 127.792 210.58 123.269 210.58 117.808C210.58 113.712 211.775 109.701 214.164 105.776C216.553 101.68 220.137 98.096 224.916 95.024C229.695 91.952 235.583 89.4773 242.58 87.6C249.748 85.7227 257.94 84.784 267.156 84.784C285.759 84.784 299.497 88.7947 308.372 96.816C317.247 104.667 321.684 115.845 321.684 130.352V205.104H337.044V219.696C334.143 221.403 330.388 222.683 325.78 223.536C321.172 224.56 316.393 225.072 311.444 225.072C302.057 225.072 295.401 222.939 291.476 218.672C287.721 214.235 285.844 208.773 285.844 202.288V201.776H284.308C283.113 204.677 281.577 207.493 279.7 210.224C277.993 212.955 275.689 215.429 272.788 217.648C270.057 219.867 266.644 221.659 262.548 223.024C258.452 224.389 253.503 225.072 247.7 225.072ZM262.292 202.032C268.607 202.032 273.556 200.581 277.14 197.68C280.895 194.779 282.772 189.744 282.772 182.576V162.352H268.948C260.756 162.352 254.612 164.059 250.516 167.472C246.591 170.885 244.628 175.749 244.628 182.064V186.16C244.628 191.621 246.249 195.632 249.492 198.192C252.735 200.752 257.001 202.032 262.292 202.032ZM338.142 205.104H353.502V113.712L338.142 110.384V95.792L391.646 84.784V110.128H392.926C395.315 103.301 399.582 97.4133 405.726 92.464C411.87 87.344 420.318 84.784 431.07 84.784C447.454 84.784 458.974 88.9653 465.63 97.328C472.457 105.52 475.87 117.893 475.87 134.448V205.104H491.23V222H422.878V205.104H436.958V135.728C436.958 126.683 435.337 120.283 432.094 116.528C429.022 112.603 423.731 110.64 416.222 110.64C413.321 110.64 410.419 111.067 407.518 111.92C404.617 112.603 402.057 113.797 399.838 115.504C397.619 117.04 395.827 119.088 394.462 121.648C393.097 124.037 392.414 127.024 392.414 130.608V205.104H406.494V222H338.142V205.104Z" fill="black"/>
<path d="M69.5003 48.3003C68.0416 46.8416 67.2221 44.8632 67.2221 42.8002C67.2221 40.7373 68.0416 38.7589 69.5003 37.3002C70.959 35.8415 72.9374 35.022 75.0004 35.022C77.0633 35.022 79.0417 35.8415 80.5004 37.3002C81.9591 38.7589 82.7786 40.7373 82.7786 42.8002C82.7786 44.8632 81.9591 46.8416 80.5004 48.3003C79.7781 49.0226 78.9207 49.5955 77.977 49.9864C77.0333 50.3773 76.0218 50.5785 75.0004 50.5785C73.9789 50.5785 72.9675 50.3773 72.0238 49.9864C71.0801 49.5955 70.2226 49.0226 69.5003 48.3003ZM90.4005 27.4001C86.3161 23.3158 80.7765 21.0212 75.0004 21.0212C69.2242 21.0212 63.6846 23.3158 59.6002 27.4001C48.0502 38.9502 46.4001 71.4005 46.4001 71.4005C46.4001 71.4005 78.8504 69.7505 90.4005 58.2004C94.4849 54.116 96.7794 48.5764 96.7794 42.8002C96.7794 37.0241 94.4849 31.4845 90.4005 27.4001Z" fill="black"/>
<path d="M674.735 107.008C680.145 100.176 682.051 90.8123 678.924 82.0113C675.798 73.2104 668.414 67.1425 659.911 65.2473L674.735 107.008Z" fill="#4CAF50"/>
<path d="M642.438 40.7112C640.363 34.8852 635.51 30.645 629.454 29.3684C623.391 28.0862 617.205 30.0151 612.943 34.5253C609.636 38.0288 606.633 41.2848 603.815 44.3441C587.766 61.7661 578.492 71.8042 553.647 82.8265L581.192 160.421C606.74 153.825 620.681 155.714 642.916 158.757C647.522 159.387 652.471 160.061 657.926 160.725C664.011 161.462 670 159.032 673.863 154.213C677.71 149.41 678.784 143.084 676.726 137.291L642.438 40.7112Z" fill="#4CAF50"/>
<path d="M596.21 168.699C591.155 169.548 585.824 170.74 579.907 172.405L557.88 180.222L587.46 217.878C589.4 220.346 592.184 221.899 595.305 222.253C595.749 222.303 596.199 222.332 596.638 222.332C599.286 222.332 601.834 221.432 603.92 219.75L614.718 211.034C619.627 207.069 620.459 199.792 616.585 194.815L596.21 168.699Z" fill="black"/>
<path d="M543.159 86.887L510.227 98.5728C501.46 101.683 496.866 111.344 499.97 120.117L515.992 165.252C517.499 169.498 520.569 172.906 524.641 174.846C526.941 175.937 529.404 176.488 531.884 176.488C533.785 176.488 535.691 176.162 537.536 175.51L570.468 163.824L543.159 86.887ZM520.89 131.702C518.573 131.702 516.408 130.262 515.592 127.956C514.552 125.026 516.082 121.815 519.011 120.775L536.293 114.64C539.206 113.599 542.434 115.129 543.474 118.059C544.515 120.989 542.985 124.2 540.055 125.24L522.774 131.375C522.155 131.595 521.508 131.702 520.89 131.702ZM548.237 148.286L530.95 154.421C530.332 154.64 529.691 154.747 529.072 154.747C526.755 154.747 524.59 153.308 523.775 151.002C522.734 148.072 524.264 144.861 527.194 143.82L544.481 137.685C547.394 136.639 550.622 138.174 551.662 141.104C552.703 144.034 551.173 147.245 548.243 148.286H548.237Z" fill="black"/>
<path d="M680.924 0L662.432 21.1703L675.185 27.5469L660.2 44.6361H677.098L695.59 23.4658L682.837 17.0893L697.822 0H680.924Z" fill="black"/>
<path d="M731.154 144.819L715.491 121.477L706.031 132.146L693.403 113.248L689.029 129.57L704.692 152.912L714.152 142.243L726.781 161.141L731.154 144.819Z" fill="black"/>
<path d="M737.025 52.4818L708.979 54.3755L713.488 67.9023L690.808 69.3903L702.757 81.3389L730.802 79.4452L726.293 65.9184L748.973 64.4304L737.025 52.4818Z" fill="black"/>
<path d="M146 298.768C143.952 298.768 142.096 298.363 140.432 297.552C138.811 296.699 137.424 295.504 136.272 293.968C135.12 292.432 134.224 290.597 133.584 288.464C132.987 286.288 132.688 283.877 132.688 281.232C132.688 278.587 132.987 276.197 133.584 274.064C134.224 271.888 135.12 270.032 136.272 268.496C137.424 266.96 138.811 265.787 140.432 264.976C142.096 264.123 143.952 263.696 146 263.696C147.195 263.696 148.261 263.867 149.2 264.208C150.181 264.507 151.035 264.912 151.76 265.424C152.528 265.936 153.168 266.533 153.68 267.216C154.192 267.899 154.597 268.603 154.896 269.328H155.216V256.592L151.376 255.76V252.112L164.944 249.36V291.536L168.784 292.368V296.016L155.216 298.768V293.008H154.896C154.299 294.501 153.232 295.845 151.696 297.04C150.203 298.192 148.304 298.768 146 298.768ZM149.264 292.88C150.971 292.88 152.379 292.347 153.488 291.28C154.64 290.213 155.216 288.784 155.216 286.992V275.408C155.216 273.616 154.64 272.187 153.488 271.12C152.379 270.053 150.971 269.52 149.264 269.52C147.472 269.52 145.979 270.139 144.784 271.376C143.589 272.613 142.992 274.427 142.992 276.816V285.584C142.992 287.973 143.589 289.787 144.784 291.024C145.979 292.261 147.472 292.88 149.264 292.88ZM168.965 293.776H172.806V270.928L168.965 270.096V266.448L182.342 263.696V270.032H182.597C183.195 268.24 184.155 266.747 185.478 265.552C186.8 264.315 188.528 263.696 190.662 263.696C192.752 263.696 194.395 264.272 195.59 265.424C196.784 266.533 197.382 268.069 197.382 270.032C197.382 271.739 196.934 273.083 196.038 274.064C195.142 275.045 193.883 275.536 192.262 275.536C190.726 275.536 189.552 275.131 188.742 274.32C187.931 273.467 187.526 272.464 187.526 271.312C187.526 270.8 187.632 270.331 187.846 269.904C188.059 269.477 188.315 269.2 188.614 269.072L188.55 268.752C188.422 268.709 188.23 268.688 187.974 268.688C187.291 268.688 186.63 268.88 185.99 269.264C185.35 269.648 184.774 270.139 184.262 270.736C183.75 271.333 183.323 271.995 182.982 272.72C182.683 273.445 182.534 274.149 182.534 274.832V293.776H187.654V298H168.965V293.776ZM205.328 260.048C203.536 260.048 202.128 259.557 201.104 258.576C200.123 257.595 199.632 256.272 199.632 254.608V254.288C199.632 252.624 200.123 251.301 201.104 250.32C202.128 249.339 203.536 248.848 205.328 248.848C207.12 248.848 208.507 249.339 209.488 250.32C210.512 251.301 211.024 252.624 211.024 254.288V254.608C211.024 256.272 210.512 257.595 209.488 258.576C208.507 259.557 207.12 260.048 205.328 260.048ZM196.688 293.776H200.528V270.928L196.688 270.096V266.448L210.256 263.696V293.776H214.096V298H196.688V293.776ZM215.31 268.688H212.302V264.464H229.134V268.688H225.55L232.59 289.616H232.91L239.438 268.688H235.854V264.464H247.63V268.688H244.622L233.742 298H226.19L215.31 268.688ZM262.081 298.768C259.436 298.768 257.089 298.341 255.041 297.488C253.036 296.592 251.329 295.376 249.921 293.84C248.556 292.261 247.51 290.405 246.785 288.272C246.06 286.096 245.697 283.728 245.697 281.168C245.697 278.48 246.06 276.048 246.785 273.872C247.553 271.696 248.62 269.861 249.985 268.368C251.393 266.875 253.057 265.723 254.977 264.912C256.94 264.101 259.116 263.696 261.505 263.696C263.894 263.696 266.049 264.059 267.969 264.784C269.889 265.509 271.51 266.555 272.833 267.92C274.198 269.243 275.244 270.864 275.969 272.784C276.694 274.704 277.057 276.837 277.057 279.184V281.36H256.001V283.92C256.001 286.779 256.748 288.933 258.241 290.384C259.734 291.835 261.718 292.56 264.193 292.56C266.497 292.56 268.353 292.048 269.761 291.024C271.169 289.957 272.172 288.677 272.769 287.184L276.289 289.296C275.905 290.363 275.35 291.451 274.625 292.56C273.9 293.669 272.961 294.693 271.809 295.632C270.657 296.528 269.27 297.275 267.649 297.872C266.028 298.469 264.172 298.768 262.081 298.768ZM256.001 277.328H267.009V276.432C267.009 273.36 266.518 271.205 265.537 269.968C264.556 268.731 263.212 268.112 261.505 268.112C259.798 268.112 258.454 268.731 257.473 269.968C256.492 271.205 256.001 273.36 256.001 276.432V277.328ZM288.923 298.64C286.363 298.64 284.464 298.085 283.227 296.976C282.032 295.824 281.435 294.139 281.435 291.92V268.944H276.955V264.464H278.683C280.091 264.464 281.115 264.165 281.755 263.568C282.438 262.928 283.078 261.989 283.675 260.752L286.363 255.184H291.163V264.464H298.523V268.944H291.163V293.648H298.523V297.424C297.84 297.723 296.624 298 294.875 298.256C293.126 298.512 291.142 298.64 288.923 298.64ZM314.526 298.768C311.881 298.768 309.534 298.341 307.486 297.488C305.481 296.592 303.774 295.376 302.366 293.84C301.001 292.261 299.955 290.405 299.23 288.272C298.505 286.096 298.142 283.728 298.142 281.168C298.142 278.48 298.505 276.048 299.23 273.872C299.998 271.696 301.065 269.861 302.43 268.368C303.838 266.875 305.502 265.723 307.422 264.912C309.385 264.101 311.561 263.696 313.95 263.696C316.339 263.696 318.494 264.059 320.414 264.784C322.334 265.509 323.955 266.555 325.278 267.92C326.643 269.243 327.689 270.864 328.414 272.784C329.139 274.704 329.502 276.837 329.502 279.184V281.36H308.446V283.92C308.446 286.779 309.193 288.933 310.686 290.384C312.179 291.835 314.163 292.56 316.638 292.56C318.942 292.56 320.798 292.048 322.206 291.024C323.614 289.957 324.617 288.677 325.214 287.184L328.734 289.296C328.35 290.363 327.795 291.451 327.07 292.56C326.345 293.669 325.406 294.693 324.254 295.632C323.102 296.528 321.715 297.275 320.094 297.872C318.473 298.469 316.617 298.768 314.526 298.768ZM308.446 277.328H319.454V276.432C319.454 273.36 318.963 271.205 317.982 269.968C317.001 268.731 315.657 268.112 313.95 268.112C312.243 268.112 310.899 268.731 309.918 269.968C308.937 271.205 308.446 273.36 308.446 276.432V277.328ZM345.016 298.768C342.669 298.768 340.877 298.341 339.64 297.488C338.403 296.592 337.613 295.611 337.272 294.544H337.016V298H330.744V288.016H337.016V289.04C337.016 290.704 337.528 291.963 338.552 292.816C339.576 293.669 341.24 294.096 343.544 294.096C345.592 294.096 347.085 293.776 348.024 293.136C348.963 292.496 349.432 291.515 349.432 290.192C349.432 289.125 349.091 288.315 348.408 287.76C347.725 287.163 346.595 286.629 345.016 286.16L342.008 285.328C338.296 284.304 335.544 282.939 333.752 281.232C332.003 279.483 331.128 277.136 331.128 274.192C331.128 270.821 332.237 268.24 334.456 266.448C336.675 264.613 339.597 263.696 343.224 263.696C345.485 263.696 347.213 264.123 348.408 264.976C349.603 265.829 350.371 266.789 350.712 267.856H350.968V264.464H357.24V274.448H350.968V273.296C350.968 271.675 350.456 270.459 349.432 269.648C348.451 268.795 346.829 268.368 344.568 268.368C341.325 268.368 339.704 269.541 339.704 271.888C339.704 272.997 340.024 273.893 340.664 274.576C341.347 275.259 342.563 275.813 344.312 276.24L347.064 276.944C348.856 277.413 350.435 277.947 351.8 278.544C353.165 279.141 354.296 279.867 355.192 280.72C356.131 281.531 356.835 282.533 357.304 283.728C357.773 284.88 358.008 286.267 358.008 287.888C358.008 291.429 356.813 294.139 354.424 296.016C352.035 297.851 348.899 298.768 345.016 298.768ZM369.59 298.64C367.03 298.64 365.132 298.085 363.894 296.976C362.7 295.824 362.102 294.139 362.102 291.92V268.944H357.622V264.464H359.35C360.758 264.464 361.782 264.165 362.422 263.568C363.105 262.928 363.745 261.989 364.342 260.752L367.03 255.184H371.83V264.464H379.191V268.944H371.83V293.648H379.191V297.424C378.508 297.723 377.292 298 375.542 298.256C373.793 298.512 371.809 298.64 369.59 298.64ZM406.229 298.768C403.541 298.768 401.173 298.32 399.125 297.424C397.119 296.528 395.413 295.291 394.005 293.712C392.639 292.133 391.594 290.277 390.869 288.144C390.186 286.011 389.845 283.685 389.845 281.168C389.845 278.352 390.293 275.877 391.189 273.744C392.085 271.568 393.301 269.733 394.837 268.24C396.415 266.747 398.25 265.616 400.341 264.848C402.474 264.08 404.757 263.696 407.189 263.696C411.114 263.696 414.122 264.507 416.213 266.128C418.346 267.749 419.413 269.797 419.413 272.272C419.413 273.893 418.965 275.195 418.069 276.176C417.173 277.115 415.935 277.584 414.357 277.584C412.778 277.584 411.562 277.179 410.709 276.368C409.855 275.515 409.429 274.405 409.429 273.04C409.429 271.931 409.706 271.013 410.261 270.288C410.858 269.563 411.519 269.029 412.245 268.688V268.304C411.818 268.176 411.306 268.048 410.709 267.92C410.154 267.792 409.386 267.728 408.405 267.728C405.802 267.728 403.775 268.56 402.325 270.224C400.874 271.845 400.149 274.192 400.149 277.264V283.92C400.149 286.736 400.81 288.891 402.133 290.384C403.455 291.835 405.29 292.56 407.637 292.56C410.026 292.56 411.925 292.005 413.333 290.896C414.741 289.787 415.743 288.485 416.341 286.992L419.925 289.104C419.541 290.171 418.986 291.28 418.261 292.432C417.578 293.584 416.682 294.629 415.573 295.568C414.463 296.507 413.141 297.275 411.605 297.872C410.069 298.469 408.277 298.768 406.229 298.768ZM430.115 298.768C426.488 298.768 423.843 297.936 422.179 296.272C420.558 294.565 419.747 292.197 419.747 289.168C419.747 282.555 424.632 279.248 434.403 279.248H438.883V275.6C438.883 272.997 438.392 271.035 437.411 269.712C436.43 268.389 434.723 267.728 432.291 267.728C431.395 267.728 430.627 267.792 429.987 267.92C429.347 268.048 428.792 268.219 428.323 268.432V268.752C428.75 268.965 429.155 269.349 429.539 269.904C429.966 270.459 430.179 271.205 430.179 272.144C430.179 273.424 429.774 274.512 428.963 275.408C428.152 276.261 426.936 276.688 425.315 276.688C424.035 276.688 422.968 276.24 422.115 275.344C421.262 274.448 420.835 273.317 420.835 271.952C420.835 270.928 421.134 269.925 421.731 268.944C422.328 267.92 423.224 267.024 424.419 266.256C425.614 265.488 427.086 264.869 428.835 264.4C430.627 263.931 432.675 263.696 434.979 263.696C439.63 263.696 443.064 264.699 445.283 266.704C447.502 268.667 448.611 271.461 448.611 275.088V293.776H452.451V297.424C451.726 297.851 450.787 298.171 449.635 298.384C448.483 298.64 447.288 298.768 446.051 298.768C443.704 298.768 442.04 298.235 441.059 297.168C440.12 296.059 439.651 294.693 439.651 293.072V292.944H439.267C438.968 293.669 438.584 294.373 438.115 295.056C437.688 295.739 437.112 296.357 436.387 296.912C435.704 297.467 434.851 297.915 433.827 298.256C432.803 298.597 431.566 298.768 430.115 298.768ZM433.763 293.008C435.342 293.008 436.579 292.645 437.475 291.92C438.414 291.195 438.883 289.936 438.883 288.144V283.088H435.427C433.379 283.088 431.843 283.515 430.819 284.368C429.838 285.221 429.347 286.437 429.347 288.016V289.04C429.347 290.405 429.752 291.408 430.563 292.048C431.374 292.688 432.44 293.008 433.763 293.008ZM452.726 293.776H456.566V270.928L452.726 270.096V266.448L466.102 263.696V270.032H466.358C466.955 268.24 467.915 266.747 469.238 265.552C470.56 264.315 472.288 263.696 474.422 263.696C476.512 263.696 478.155 264.272 479.35 265.424C480.544 266.533 481.142 268.069 481.142 270.032C481.142 271.739 480.694 273.083 479.798 274.064C478.902 275.045 477.643 275.536 476.022 275.536C474.486 275.536 473.312 275.131 472.502 274.32C471.691 273.467 471.286 272.464 471.286 271.312C471.286 270.8 471.392 270.331 471.606 269.904C471.819 269.477 472.075 269.2 472.374 269.072L472.31 268.752C472.182 268.709 471.99 268.688 471.734 268.688C471.051 268.688 470.39 268.88 469.75 269.264C469.11 269.648 468.534 270.139 468.022 270.736C467.51 271.333 467.083 271.995 466.742 272.72C466.443 273.445 466.294 274.149 466.294 274.832V293.776H471.414V298H452.726V293.776ZM506.011 298.768C503.664 298.768 501.872 298.341 500.635 297.488C499.398 296.592 498.608 295.611 498.267 294.544H498.011V298H491.739V288.016H498.011V289.04C498.011 290.704 498.523 291.963 499.547 292.816C500.571 293.669 502.235 294.096 504.539 294.096C506.587 294.096 508.08 293.776 509.019 293.136C509.958 292.496 510.427 291.515 510.427 290.192C510.427 289.125 510.086 288.315 509.403 287.76C508.72 287.163 507.59 286.629 506.011 286.16L503.003 285.328C499.291 284.304 496.539 282.939 494.747 281.232C492.998 279.483 492.123 277.136 492.123 274.192C492.123 270.821 493.232 268.24 495.451 266.448C497.67 264.613 500.592 263.696 504.219 263.696C506.48 263.696 508.208 264.123 509.403 264.976C510.598 265.829 511.366 266.789 511.707 267.856H511.963V264.464H518.235V274.448H511.963V273.296C511.963 271.675 511.451 270.459 510.427 269.648C509.446 268.795 507.824 268.368 505.563 268.368C502.32 268.368 500.699 269.541 500.699 271.888C500.699 272.997 501.019 273.893 501.659 274.576C502.342 275.259 503.558 275.813 505.307 276.24L508.059 276.944C509.851 277.413 511.43 277.947 512.795 278.544C514.16 279.141 515.291 279.867 516.187 280.72C517.126 281.531 517.83 282.533 518.299 283.728C518.768 284.88 519.003 286.267 519.003 287.888C519.003 291.429 517.808 294.139 515.419 296.016C513.03 297.851 509.894 298.768 506.011 298.768ZM536.399 294.16C540.324 294.16 542.287 291.813 542.287 287.12V275.344C542.287 270.651 540.324 268.304 536.399 268.304C532.474 268.304 530.511 270.651 530.511 275.344V287.12C530.511 291.813 532.474 294.16 536.399 294.16ZM536.399 298.768C533.967 298.768 531.748 298.384 529.743 297.616C527.78 296.805 526.074 295.653 524.623 294.16C523.215 292.667 522.127 290.832 521.359 288.656C520.591 286.48 520.207 284.005 520.207 281.232C520.207 278.459 520.591 275.984 521.359 273.808C522.127 271.632 523.215 269.797 524.623 268.304C526.074 266.811 527.78 265.68 529.743 264.912C531.748 264.101 533.967 263.696 536.399 263.696C538.831 263.696 541.028 264.101 542.991 264.912C544.996 265.68 546.703 266.811 548.111 268.304C549.562 269.797 550.671 271.632 551.439 273.808C552.207 275.984 552.591 278.459 552.591 281.232C552.591 284.005 552.207 286.48 551.439 288.656C550.671 290.832 549.562 292.667 548.111 294.16C546.703 295.653 544.996 296.805 542.991 297.616C541.028 298.384 538.831 298.768 536.399 298.768ZM552.913 293.776H556.753V256.592L552.913 255.76V252.112L566.481 249.36V293.776H570.321V298H552.913V293.776ZM584.668 298.768C580.572 298.768 577.671 297.744 575.964 295.696C574.3 293.605 573.468 290.491 573.468 286.352V270.928L569.628 270.096V266.448L583.196 263.696V286.032C583.196 288.293 583.58 289.915 584.348 290.896C585.159 291.835 586.503 292.304 588.38 292.304C589.105 292.304 589.831 292.219 590.556 292.048C591.281 291.835 591.921 291.536 592.476 291.152C593.031 290.725 593.479 290.213 593.82 289.616C594.161 288.976 594.332 288.208 594.332 287.312V270.928L590.492 270.096V266.448L604.06 263.696V291.536L607.9 292.368V296.016L594.524 298.768V292.432H594.204C593.607 294.139 592.54 295.632 591.004 296.912C589.468 298.149 587.356 298.768 584.668 298.768ZM619.066 298.64C616.506 298.64 614.607 298.085 613.37 296.976C612.175 295.824 611.578 294.139 611.578 291.92V268.944H607.098V264.464H608.826C610.234 264.464 611.258 264.165 611.898 263.568C612.58 262.928 613.22 261.989 613.818 260.752L616.506 255.184H621.306V264.464H628.666V268.944H621.306V293.648H628.666V297.424C627.983 297.723 626.767 298 625.018 298.256C623.268 298.512 621.284 298.64 619.066 298.64ZM637.486 260.048C635.694 260.048 634.286 259.557 633.262 258.576C632.28 257.595 631.79 256.272 631.79 254.608V254.288C631.79 252.624 632.28 251.301 633.262 250.32C634.286 249.339 635.694 248.848 637.486 248.848C639.278 248.848 640.664 249.339 641.646 250.32C642.67 251.301 643.182 252.624 643.182 254.288V254.608C643.182 256.272 642.67 257.595 641.646 258.576C640.664 259.557 639.278 260.048 637.486 260.048ZM628.846 293.776H632.686V270.928L628.846 270.096V266.448L642.414 263.696V293.776H646.254V298H628.846V293.776ZM662.699 294.16C666.624 294.16 668.587 291.813 668.587 287.12V275.344C668.587 270.651 666.624 268.304 662.699 268.304C658.774 268.304 656.811 270.651 656.811 275.344V287.12C656.811 291.813 658.774 294.16 662.699 294.16ZM662.699 298.768C660.267 298.768 658.048 298.384 656.043 297.616C654.08 296.805 652.374 295.653 650.923 294.16C649.515 292.667 648.427 290.832 647.659 288.656C646.891 286.48 646.507 284.005 646.507 281.232C646.507 278.459 646.891 275.984 647.659 273.808C648.427 271.632 649.515 269.797 650.923 268.304C652.374 266.811 654.08 265.68 656.043 264.912C658.048 264.101 660.267 263.696 662.699 263.696C665.131 263.696 667.328 264.101 669.291 264.912C671.296 265.68 673.003 266.811 674.411 268.304C675.862 269.797 676.971 271.632 677.739 273.808C678.507 275.984 678.891 278.459 678.891 281.232C678.891 284.005 678.507 286.48 677.739 288.656C676.971 290.832 675.862 292.667 674.411 294.16C673.003 295.653 671.296 296.805 669.291 297.616C667.328 298.384 665.131 298.768 662.699 298.768ZM679.853 293.776H683.693V270.928L679.853 270.096V266.448L693.229 263.696V270.032H693.549C694.146 268.325 695.213 266.853 696.749 265.616C698.285 264.336 700.397 263.696 703.085 263.696C707.181 263.696 710.061 264.741 711.725 266.832C713.432 268.88 714.285 271.973 714.285 276.112V293.776H718.125V298H701.037V293.776H704.557V276.432C704.557 274.171 704.152 272.571 703.341 271.632C702.573 270.651 701.25 270.16 699.373 270.16C698.648 270.16 697.922 270.267 697.197 270.48C696.472 270.651 695.832 270.949 695.277 271.376C694.722 271.76 694.274 272.272 693.933 272.912C693.592 273.509 693.421 274.256 693.421 275.152V293.776H696.941V298H679.853V293.776ZM732.916 298.768C730.569 298.768 728.777 298.341 727.54 297.488C726.303 296.592 725.513 295.611 725.172 294.544H724.916V298H718.644V288.016H724.916V289.04C724.916 290.704 725.428 291.963 726.452 292.816C727.476 293.669 729.14 294.096 731.444 294.096C733.492 294.096 734.985 293.776 735.924 293.136C736.863 292.496 737.332 291.515 737.332 290.192C737.332 289.125 736.991 288.315 736.308 287.76C735.625 287.163 734.495 286.629 732.916 286.16L729.908 285.328C726.196 284.304 723.444 282.939 721.652 281.232C719.903 279.483 719.028 277.136 719.028 274.192C719.028 270.821 720.137 268.24 722.356 266.448C724.575 264.613 727.497 263.696 731.124 263.696C733.385 263.696 735.113 264.123 736.308 264.976C737.503 265.829 738.271 266.789 738.612 267.856H738.868V264.464H745.14V274.448H738.868V273.296C738.868 271.675 738.356 270.459 737.332 269.648C736.351 268.795 734.729 268.368 732.468 268.368C729.225 268.368 727.604 269.541 727.604 271.888C727.604 272.997 727.924 273.893 728.564 274.576C729.247 275.259 730.463 275.813 732.212 276.24L734.964 276.944C736.756 277.413 738.335 277.947 739.7 278.544C741.065 279.141 742.196 279.867 743.092 280.72C744.031 281.531 744.735 282.533 745.204 283.728C745.673 284.88 745.908 286.267 745.908 287.888C745.908 291.429 744.713 294.139 742.324 296.016C739.935 297.851 736.799 298.768 732.916 298.768Z" fill="#B4B4B4"/>
</svg>
